<svg id="svg" version="1.1" xmlns="http://www.w3.org/2000/svg" xmlns:xlink="http://www.w3.org/1999/xlink" width="400" height="400" viewBox="0, 0, 400,400"><g id="svgg"><path id="path0" d="M243.620 161.670 C 237.141 168.199,231.714 173.869,231.562 174.271 C 231.409 174.672,220.296 185.995,206.866 199.434 C 190.949 215.361,182.355 224.241,182.179 224.941 C 181.696 226.864,182.690 228.096,193.114 238.499 C 203.296 248.659,204.981 250.087,206.363 249.726 C 207.093 249.535,254.992 201.838,255.768 200.528 C 256.451 199.377,256.592 150.636,255.914 150.161 C 255.544 149.901,252.108 153.117,243.620 161.670 M165.543 174.900 C 147.886 192.674,141.072 199.784,140.722 200.800 C 139.723 203.698,139.800 248.396,140.807 250.003 C 141.232 250.681,163.935 228.407,165.069 226.200 C 165.409 225.540,176.572 214.097,189.876 200.770 C 216.402 174.200,214.785 175.932,214.794 174.086 C 214.805 171.749,193.545 150.400,191.207 150.400 C 189.985 150.400,187.972 152.321,165.543 174.900 " stroke="none" fill="#2bc25b" fill-rule="evenodd"></path><path id="path1" d="M0.000 200.000 L 0.000 400.000 200.000 400.000 L 400.000 400.000 400.000 200.000 L 400.000 0.000 200.000 0.000 L 0.000 0.000 0.000 200.000 M232.859 122.327 C 249.737 139.231,257.651 147.425,257.874 148.227 C 258.648 151.011,258.257 199.295,257.449 200.779 C 256.233 203.011,208.865 250.317,207.342 250.819 C 204.447 251.775,204.139 251.544,191.841 239.241 C 180.588 227.983,180.351 227.713,180.329 226.108 C 180.298 223.817,179.625 224.550,204.890 199.331 C 217.271 186.973,228.021 176.217,228.781 175.428 L 230.162 173.995 205.281 149.075 L 180.400 124.154 180.400 122.410 L 180.400 120.666 191.900 109.132 L 203.400 97.597 205.785 97.599 L 208.170 97.600 232.859 122.327 M204.253 159.752 C 215.964 171.420,216.800 172.384,216.800 174.224 C 216.800 176.040,217.303 175.502,191.102 201.695 C 177.956 214.838,167.200 225.820,167.200 226.099 C 167.200 226.379,178.173 237.571,191.584 250.971 C 204.996 264.372,216.127 275.800,216.319 276.368 C 217.116 278.716,216.429 279.599,204.777 291.216 C 193.007 302.950,192.588 303.268,189.897 302.506 C 188.872 302.217,155.782 269.649,143.528 256.870 L 138.800 251.940 138.802 226.270 L 138.804 200.600 139.704 199.114 C 140.199 198.296,151.470 186.731,164.750 173.414 L 188.896 149.200 191.279 149.200 L 193.662 149.200 204.253 159.752 " stroke="none" fill="#1c1b1c" fill-rule="evenodd"></path><path id="path2" d="M204.557 99.011 C 203.061 99.666,182.745 120.039,182.140 121.491 C 181.396 123.276,181.722 123.645,201.980 143.927 C 212.551 154.510,221.200 163.355,221.200 163.584 C 221.200 163.813,221.348 164.000,221.528 164.000 C 222.299 164.000,231.279 173.090,231.143 173.732 C 231.064 174.101,219.795 185.617,206.100 199.324 C 181.822 223.623,181.200 224.284,181.200 225.780 C 181.200 227.256,181.637 227.755,192.494 238.674 C 203.634 249.876,204.662 250.722,206.562 250.245 C 207.616 249.981,255.457 202.213,256.322 200.561 C 258.002 197.354,258.177 151.613,256.520 148.600 C 255.432 146.621,207.730 98.983,206.557 98.705 C 206.093 98.595,205.193 98.732,204.557 99.011 M165.701 173.700 C 148.649 190.733,141.284 198.353,140.587 199.687 L 139.600 201.573 139.600 226.243 L 139.600 250.912 143.500 254.891 C 161.554 273.312,189.815 301.167,190.666 301.381 C 192.157 301.755,192.491 301.468,204.167 289.792 C 215.622 278.337,215.641 278.311,214.214 275.680 C 213.892 275.086,202.912 263.909,189.814 250.842 C 174.569 235.633,166.000 226.804,166.000 226.304 C 166.000 225.804,174.465 217.065,189.483 202.061 C 220.140 171.432,217.580 174.995,212.719 169.724 C 209.710 166.461,193.493 150.434,192.672 149.912 C 190.728 148.676,190.953 148.477,165.701 173.700 M256.314 175.161 C 256.237 191.883,256.061 200.034,255.768 200.528 C 254.992 201.838,207.093 249.535,206.363 249.726 C 204.981 250.087,203.296 248.659,193.114 238.499 C 182.690 228.096,181.696 226.864,182.179 224.941 C 182.355 224.241,190.949 215.361,206.866 199.434 C 220.296 185.995,231.409 174.672,231.562 174.271 C 232.122 172.799,255.373 149.780,255.914 150.161 C 256.326 150.450,256.406 155.435,256.314 175.161 M199.566 157.300 C 214.649 172.096,215.891 173.657,214.427 175.970 C 214.228 176.284,203.181 187.444,189.876 200.770 C 176.572 214.097,165.409 225.540,165.069 226.200 C 163.935 228.407,141.232 250.681,140.807 250.003 C 139.800 248.396,139.723 203.698,140.722 200.800 C 141.601 198.248,189.531 150.400,191.207 150.400 C 192.385 150.400,193.317 151.169,199.566 157.300 " stroke="none" fill="#1c9243" fill-rule="evenodd"></path><path id="path3" d="M192.762 109.100 C 181.890 119.955,180.515 121.626,181.035 123.353 C 181.175 123.819,192.374 135.309,205.920 148.886 C 229.659 172.678,230.532 173.606,230.043 174.520 C 229.763 175.042,220.541 184.454,209.548 195.435 C 178.318 226.631,180.800 223.997,180.800 225.940 C 180.800 227.579,180.946 227.749,191.352 238.223 C 203.207 250.156,203.956 250.800,205.978 250.801 C 207.887 250.802,255.817 203.154,257.079 200.000 C 257.859 198.053,258.219 151.752,257.476 149.000 C 257.248 148.154,249.822 140.461,232.280 122.900 L 207.409 98.000 205.644 98.000 L 203.880 98.000 192.762 109.100 M231.520 122.953 C 245.004 136.395,256.029 147.706,256.520 148.600 C 258.177 151.613,258.002 197.354,256.322 200.561 C 255.457 202.213,207.616 249.981,206.562 250.245 C 204.662 250.722,203.634 249.876,192.494 238.674 C 181.637 227.755,181.200 227.256,181.200 225.780 C 181.200 224.284,181.822 223.623,206.100 199.324 C 219.795 185.617,231.064 174.101,231.143 173.732 C 231.279 173.090,222.299 164.000,221.528 164.000 C 221.348 164.000,221.200 163.813,221.200 163.584 C 221.200 163.355,212.551 154.510,201.980 143.927 C 181.722 123.645,181.396 123.276,182.140 121.491 C 182.745 120.039,203.061 99.666,204.557 99.011 C 206.577 98.126,206.960 98.466,231.520 122.953 M188.600 150.354 C 185.906 152.397,140.782 198.246,139.965 199.770 C 139.235 201.132,139.200 202.341,139.200 226.163 L 139.200 251.128 140.759 253.064 C 141.617 254.129,152.916 265.575,165.867 278.500 L 189.416 302.000 191.217 302.000 L 193.018 302.000 204.009 291.006 C 215.653 279.360,216.427 278.395,215.643 276.503 C 215.381 275.870,204.194 264.383,190.783 250.976 C 177.372 237.570,166.400 226.424,166.400 226.208 C 166.400 225.992,177.548 214.651,191.174 201.007 C 208.660 183.498,216.031 175.859,216.232 175.040 C 216.704 173.117,215.699 171.894,204.245 160.445 C 191.809 148.015,191.741 147.971,188.600 150.354 M192.672 149.912 C 193.493 150.434,209.710 166.461,212.719 169.724 C 217.580 174.995,220.140 171.432,189.483 202.061 C 174.465 217.065,166.000 225.804,166.000 226.304 C 166.000 226.804,174.569 235.633,189.814 250.842 C 202.912 263.909,213.892 275.086,214.214 275.680 C 215.641 278.311,215.622 278.337,204.167 289.792 C 192.491 301.468,192.157 301.755,190.666 301.381 C 189.815 301.167,161.554 273.312,143.500 254.891 L 139.600 250.912 139.600 226.243 L 139.600 201.573 140.587 199.687 C 141.284 198.353,148.649 190.733,165.701 173.700 C 190.953 148.477,190.728 148.676,192.672 149.912 " stroke="none" fill="#1e6034" fill-rule="evenodd"></path><path id="path4" d="M191.900 109.132 L 180.400 120.666 180.400 122.410 L 180.400 124.154 205.281 149.075 L 230.162 173.995 228.781 175.428 C 228.021 176.217,217.271 186.973,204.890 199.331 C 179.625 224.550,180.298 223.817,180.329 226.108 C 180.353 227.803,202.375 250.800,203.975 250.800 C 204.294 250.800,203.959 250.360,203.230 249.822 C 198.264 246.158,180.800 227.563,180.800 225.940 C 180.800 223.997,178.318 226.631,209.548 195.435 C 220.541 184.454,229.763 175.042,230.043 174.520 C 230.532 173.606,229.659 172.678,205.920 148.886 C 192.374 135.309,181.175 123.819,181.035 123.353 C 180.515 121.626,181.890 119.955,192.762 109.100 L 203.880 98.000 205.644 98.000 L 207.409 98.000 232.280 122.900 C 249.822 140.461,257.248 148.154,257.476 149.000 C 258.219 151.752,257.859 198.053,257.079 200.000 C 256.493 201.464,251.787 206.375,231.879 226.301 C 218.416 239.776,207.580 250.802,207.800 250.803 C 208.467 250.804,256.632 202.279,257.445 200.787 C 258.257 199.296,258.651 151.024,257.874 148.227 C 257.651 147.425,249.737 139.231,232.859 122.327 L 208.170 97.600 205.785 97.599 L 203.400 97.597 191.900 109.132 M164.750 173.414 C 151.470 186.731,140.199 198.296,139.704 199.114 L 138.804 200.600 138.802 226.270 L 138.800 251.940 143.528 256.870 C 155.782 269.649,188.872 302.217,189.897 302.506 C 192.588 303.268,193.007 302.950,204.777 291.216 C 216.429 279.599,217.116 278.716,216.319 276.368 C 216.127 275.800,204.996 264.372,191.584 250.971 C 178.173 237.571,167.200 226.379,167.200 226.099 C 167.200 225.820,177.956 214.838,191.102 201.695 C 220.012 172.794,218.256 174.929,215.822 171.630 C 213.858 168.968,193.661 149.200,192.931 149.225 C 192.272 149.248,192.278 149.284,193.000 149.588 C 194.226 150.104,215.864 172.072,216.188 173.129 C 216.832 175.232,216.106 176.042,191.174 201.007 C 177.548 214.651,166.400 225.992,166.400 226.208 C 166.400 226.424,177.372 237.570,190.783 250.976 C 204.194 264.383,215.381 275.870,215.643 276.503 C 216.427 278.395,215.653 279.360,204.009 291.006 L 193.018 302.000 191.217 302.000 L 189.416 302.000 165.867 278.500 C 152.916 265.575,141.617 254.129,140.759 253.064 L 139.200 251.128 139.200 226.163 C 139.200 202.341,139.235 201.132,139.965 199.770 C 140.788 198.235,185.952 152.353,188.579 150.384 C 189.481 149.707,189.888 149.200,189.527 149.200 C 189.180 149.200,178.031 160.096,164.750 173.414 " stroke="none" fill="#1c442c" fill-rule="evenodd"></path></g></svg>