<svg id="svg" version="1.1" xmlns="http://www.w3.org/2000/svg" xmlns:xlink="http://www.w3.org/1999/xlink" width="400" height="400" viewBox="0, 0, 400,400"><g id="svgg"><path id="path0" d="M0.000 200.000 L 0.000 400.000 200.000 400.000 L 400.000 400.000 400.000 200.000 L 400.000 0.000 200.000 0.000 L 0.000 0.000 0.000 200.000 M323.469 112.200 C 326.657 114.223,330.729 118.220,331.414 120.000 C 331.795 120.990,332.398 122.160,332.753 122.600 C 333.768 123.855,333.347 276.783,332.325 278.600 C 331.953 279.260,331.262 280.557,330.789 281.482 C 329.948 283.126,327.954 285.125,325.017 287.268 C 324.055 287.970,322.638 288.483,320.877 288.767 C 316.921 289.406,78.995 289.178,77.564 288.534 C 76.994 288.278,75.678 287.333,74.639 286.434 C 73.601 285.535,72.505 284.800,72.205 284.800 C 71.681 284.800,70.882 283.334,68.659 278.300 C 68.101 277.035,67.459 276.000,67.233 276.000 C 66.840 276.000,66.886 131.090,67.280 126.200 C 67.438 124.249,69.718 118.800,70.377 118.800 C 70.552 118.800,70.923 117.990,71.200 117.000 C 71.477 116.010,71.907 115.200,72.155 115.200 C 72.785 115.200,76.515 113.222,77.000 112.630 C 77.220 112.361,77.760 111.935,78.200 111.681 C 79.867 110.722,321.946 111.234,323.469 112.200 M81.206 120.872 C 78.748 121.577,75.943 125.033,76.549 126.612 C 76.682 126.957,76.777 160.305,76.761 200.719 C 76.746 241.134,76.740 274.551,76.748 274.979 C 76.800 277.796,80.054 279.453,86.572 279.982 C 93.626 280.555,307.129 280.552,313.800 279.979 C 319.733 279.470,321.804 278.611,323.000 276.162 C 323.440 275.261,324.125 274.203,324.523 273.810 C 325.001 273.338,325.137 272.877,324.923 272.448 C 324.745 272.092,324.510 239.040,324.400 199.000 L 324.200 126.200 323.330 124.600 C 322.842 123.703,321.607 122.429,320.521 121.700 L 318.583 120.400 200.592 120.436 C 123.287 120.460,82.119 120.610,81.206 120.872 M98.400 131.951 C 98.400 132.852,97.402 133.772,96.818 133.411 C 96.351 133.123,96.255 131.878,96.667 131.467 C 97.241 130.892,98.400 131.216,98.400 131.951 M174.876 133.527 C 176.936 134.360,177.272 137.183,175.569 139.348 C 174.695 140.460,174.023 143.116,174.010 145.516 C 173.998 147.500,172.852 149.330,171.000 150.319 C 169.931 150.890,167.245 150.947,146.329 150.840 C 128.862 150.750,122.485 150.842,121.403 151.199 C 119.432 151.850,117.277 151.407,116.746 150.242 C 116.497 149.695,114.978 148.619,112.964 147.564 C 107.233 144.560,106.650 144.234,104.900 143.047 C 102.599 141.486,102.517 139.821,104.653 138.060 C 105.453 137.401,106.401 136.197,106.759 135.383 C 107.601 133.475,105.465 133.612,140.000 133.249 C 171.900 132.914,173.389 132.926,174.876 133.527 M99.600 146.600 C 99.600 147.578,99.419 148.000,99.000 148.000 C 98.670 148.000,98.400 147.719,98.400 147.376 C 98.400 147.033,98.580 146.864,98.800 147.000 C 99.027 147.140,99.200 146.804,99.200 146.224 C 99.200 145.661,99.290 145.200,99.400 145.200 C 99.510 145.200,99.600 145.830,99.600 146.600 M107.780 148.200 C 108.689 149.190,109.718 150.000,110.067 150.000 C 111.345 150.000,113.442 151.215,115.123 152.930 C 116.096 153.922,117.511 154.886,118.373 155.145 C 120.372 155.743,120.393 155.876,120.429 167.750 C 120.445 173.058,120.594 178.350,120.759 179.511 C 121.588 185.332,118.263 192.950,114.090 194.792 C 113.490 195.057,112.280 196.134,111.400 197.187 C 108.083 201.152,105.843 201.298,104.394 197.643 C 104.098 196.896,103.438 195.835,102.928 195.284 C 101.987 194.269,101.699 192.473,102.365 191.780 C 102.813 191.314,103.061 155.743,102.634 153.171 C 102.295 151.126,103.002 148.888,104.489 147.305 C 105.649 146.071,105.884 146.135,107.780 148.200 M261.193 149.284 C 261.622 149.990,262.088 151.092,262.229 151.733 C 262.370 152.374,262.843 153.505,263.280 154.245 C 263.716 154.985,264.235 156.875,264.432 158.445 C 264.629 160.014,265.051 161.821,265.370 162.460 C 265.689 163.099,266.247 164.645,266.611 165.896 C 266.974 167.146,267.706 168.685,268.236 169.316 C 268.973 170.192,269.200 170.932,269.200 172.459 C 269.200 173.702,269.427 174.684,269.800 175.057 C 270.130 175.387,270.400 176.146,270.400 176.744 C 270.400 177.342,270.737 178.492,271.149 179.299 C 271.561 180.107,272.207 181.720,272.585 182.884 C 272.963 184.048,273.504 185.270,273.788 185.600 C 274.649 186.602,275.477 188.512,275.782 190.200 C 275.941 191.080,276.275 192.046,276.523 192.346 C 276.771 192.647,276.980 194.052,276.987 195.469 C 276.998 197.656,277.135 198.148,277.892 198.723 C 278.383 199.095,278.903 200.030,279.049 200.800 C 279.195 201.570,279.559 202.686,279.857 203.280 C 280.156 203.874,280.400 205.092,280.400 205.986 C 280.400 206.879,280.559 207.923,280.753 208.305 C 281.525 209.822,281.998 211.104,282.633 213.400 C 282.999 214.720,283.624 216.111,284.023 216.492 C 284.792 217.225,285.430 220.278,285.087 221.588 C 284.975 222.019,285.124 222.571,285.419 222.816 C 285.715 223.061,286.260 224.193,286.631 225.331 C 287.002 226.469,287.460 227.596,287.649 227.837 C 287.838 228.077,288.341 229.362,288.765 230.692 C 289.190 232.022,289.941 233.896,290.434 234.855 C 290.999 235.957,291.363 237.455,291.420 238.919 C 291.480 240.437,291.746 241.499,292.191 241.990 C 292.565 242.403,293.024 243.340,293.210 244.071 C 293.397 244.802,293.858 246.485,294.236 247.811 C 295.291 251.517,293.990 255.226,292.220 253.558 C 292.011 253.361,291.170 253.200,290.351 253.200 C 289.346 253.200,288.475 252.875,287.673 252.200 C 286.838 251.498,286.008 251.200,284.883 251.200 C 283.880 251.200,282.435 250.755,281.017 250.009 C 279.772 249.354,277.999 248.617,277.077 248.372 C 276.155 248.126,275.130 247.696,274.800 247.415 C 274.186 246.892,273.161 246.596,270.000 246.026 C 269.010 245.848,266.277 245.049,263.927 244.251 C 259.094 242.609,256.784 242.416,255.644 243.556 C 255.216 243.984,254.001 244.435,252.851 244.593 C 251.731 244.747,250.378 245.217,249.844 245.636 C 249.311 246.056,248.705 246.400,248.498 246.400 C 247.939 246.400,245.651 247.594,245.384 248.025 C 245.257 248.231,243.982 248.400,242.550 248.400 C 240.038 248.400,238.769 248.774,237.719 249.824 C 237.445 250.098,236.271 250.450,235.110 250.607 C 232.482 250.962,231.662 251.384,231.191 252.624 C 230.758 253.761,230.308 253.814,228.000 253.000 C 227.065 252.670,225.804 252.400,225.199 252.400 C 222.842 252.400,222.819 251.363,225.019 244.346 C 225.338 243.327,225.600 242.152,225.600 241.735 C 225.600 241.319,225.950 240.678,226.378 240.312 C 226.805 239.946,227.261 238.961,227.391 238.123 C 227.520 237.285,227.947 235.970,228.339 235.200 C 228.732 234.430,229.252 233.080,229.495 232.200 C 230.508 228.532,230.800 227.267,230.800 226.546 C 230.800 226.128,231.222 225.159,231.738 224.393 C 232.255 223.627,232.804 222.190,232.959 221.200 C 233.114 220.210,233.681 218.650,234.218 217.734 C 234.755 216.818,235.396 215.108,235.642 213.934 C 235.888 212.760,236.340 211.516,236.645 211.169 C 236.950 210.821,237.202 210.191,237.205 209.769 C 237.207 209.346,237.492 208.010,237.837 206.800 C 238.181 205.590,238.609 203.970,238.786 203.200 C 239.226 201.292,242.028 193.514,242.489 192.923 C 242.693 192.660,243.116 191.350,243.428 190.012 C 243.740 188.673,244.258 187.178,244.578 186.689 C 245.147 185.819,245.889 183.411,247.071 178.600 C 247.395 177.280,247.917 175.916,248.230 175.569 C 248.544 175.221,248.800 174.479,248.800 173.919 C 248.800 172.032,249.272 170.519,250.196 169.444 C 250.752 168.797,251.307 167.354,251.603 165.783 C 251.872 164.357,252.252 163.092,252.446 162.971 C 252.641 162.851,252.808 162.268,252.818 161.676 C 252.827 161.084,253.080 159.970,253.379 159.200 C 253.679 158.430,254.412 156.450,255.010 154.800 C 255.607 153.150,256.345 151.445,256.648 151.011 C 256.952 150.577,257.200 149.938,257.200 149.591 C 257.200 147.613,260.043 147.394,261.193 149.284 M125.400 190.979 C 126.060 191.138,135.457 191.245,146.283 191.217 C 165.163 191.168,165.995 191.197,166.683 191.929 C 172.014 197.600,173.387 201.334,170.457 202.195 C 169.317 202.530,166.975 204.817,164.001 208.501 C 163.684 208.894,118.849 208.966,117.800 208.576 C 113.864 207.111,111.182 200.593,114.203 199.835 C 114.739 199.701,115.382 199.188,115.632 198.695 C 116.150 197.676,121.133 192.800,121.656 192.800 C 121.845 192.800,122.000 192.453,122.000 192.029 C 122.000 190.989,123.151 189.868,123.742 190.331 C 123.994 190.528,124.740 190.820,125.400 190.979 M180.754 203.889 C 182.054 206.524,182.292 207.773,181.578 208.214 C 181.288 208.393,181.178 216.505,181.226 234.164 C 181.307 263.837,181.531 262.195,177.071 264.634 C 175.421 265.535,170.800 264.340,170.800 263.012 C 170.800 262.709,170.384 261.953,169.876 261.331 C 169.368 260.709,168.724 259.413,168.445 258.452 C 168.167 257.491,167.010 255.427,165.875 253.866 L 163.810 251.027 163.481 243.014 C 163.300 238.606,163.274 232.030,163.423 228.400 C 163.572 224.770,163.725 219.516,163.764 216.724 C 163.836 211.447,164.297 210.000,165.906 210.000 C 166.474 210.000,169.280 207.308,172.690 203.491 C 173.620 202.451,174.581 201.600,174.827 201.600 C 175.073 201.600,175.715 201.253,176.254 200.829 C 177.715 199.680,179.165 200.666,180.754 203.889 M141.409 249.172 C 157.672 249.135,160.400 249.308,160.400 250.375 C 160.400 250.511,160.940 251.213,161.600 251.936 C 162.260 252.658,162.800 253.588,162.800 254.001 C 162.800 254.415,162.953 254.848,163.141 254.963 C 163.328 255.079,163.801 256.035,164.192 257.087 C 164.583 258.139,165.423 259.552,166.058 260.226 C 168.177 262.475,168.311 264.936,166.401 266.527 C 165.413 267.349,112.968 267.600,110.000 266.796 C 105.892 265.684,104.838 260.908,108.180 258.550 C 108.764 258.137,110.898 256.195,112.921 254.234 C 117.926 249.381,119.130 248.701,122.200 248.986 C 123.520 249.109,132.164 249.192,141.409 249.172 " stroke="none" fill="#536cf3" fill-rule="evenodd"></path><path id="path1" d="M80.853 113.229 C 75.473 114.293,71.429 118.187,69.638 124.028 C 68.808 126.736,69.042 274.412,69.881 277.165 C 71.450 282.315,75.295 285.932,80.400 287.062 C 83.397 287.725,315.843 287.825,319.433 287.165 C 324.287 286.272,327.559 283.790,329.854 279.261 L 331.000 277.000 331.000 200.200 L 331.000 123.400 329.904 121.200 C 328.190 117.762,325.714 115.476,321.800 113.719 C 320.041 112.928,84.787 112.450,80.853 113.229 M321.457 119.678 C 323.302 120.878,324.391 122.240,325.354 124.549 C 326.368 126.981,326.340 272.609,325.325 275.712 C 324.504 278.223,321.965 280.844,319.695 281.524 C 318.484 281.887,290.079 282.000,199.899 282.000 L 81.691 282.000 79.546 280.883 C 77.891 280.021,77.103 279.270,76.100 277.600 L 74.800 275.435 74.800 200.493 L 74.800 125.550 75.797 123.475 C 76.971 121.032,79.403 119.118,81.793 118.758 C 82.677 118.625,136.590 118.535,201.600 118.558 L 319.800 118.600 321.457 119.678 M114.400 134.779 C 108.320 135.443,103.413 140.549,107.069 142.406 C 107.691 142.722,109.299 143.660,110.643 144.490 C 111.987 145.321,113.199 146.000,113.335 146.000 C 113.472 146.000,114.623 146.675,115.892 147.500 L 118.200 149.000 143.925 149.000 L 169.650 149.000 170.200 148.000 C 170.502 147.450,171.228 145.650,171.813 144.000 C 172.399 142.350,173.109 140.460,173.393 139.800 C 174.474 137.282,174.916 135.679,174.691 135.092 C 174.438 134.434,120.141 134.152,114.400 134.779 M104.244 149.333 C 104.116 149.810,104.008 160.149,104.005 172.309 L 104.000 194.418 105.651 196.209 C 107.845 198.589,107.552 198.717,113.288 192.883 L 118.318 187.767 118.580 185.183 C 118.724 183.762,118.787 176.943,118.721 170.028 L 118.600 157.456 116.074 155.728 C 114.685 154.778,113.463 154.000,113.358 154.000 C 113.253 154.000,112.680 153.664,112.084 153.254 C 106.836 149.640,104.478 148.460,104.244 149.333 M258.676 150.279 C 258.421 150.694,255.635 158.630,255.194 160.200 C 255.008 160.860,251.862 170.220,248.203 181.000 C 244.544 191.780,241.401 201.140,241.220 201.800 C 241.038 202.460,240.141 205.160,239.227 207.800 C 238.313 210.440,235.405 219.080,232.766 227.000 C 230.126 234.920,227.812 241.760,227.623 242.200 C 226.741 244.259,224.911 250.623,225.076 251.054 C 225.389 251.870,226.352 252.007,227.707 251.427 C 228.418 251.122,229.900 250.595,231.000 250.255 C 232.100 249.915,235.880 248.633,239.400 247.405 C 242.920 246.177,247.420 244.631,249.400 243.969 C 251.380 243.307,253.313 242.594,253.695 242.383 C 254.077 242.172,254.634 242.000,254.933 242.000 C 255.232 242.000,256.054 241.712,256.760 241.360 C 258.533 240.476,259.934 240.742,267.400 243.383 C 270.920 244.629,274.160 245.742,274.600 245.857 C 275.535 246.102,276.431 246.443,278.514 247.345 C 279.346 247.705,280.351 248.000,280.747 248.000 C 281.143 248.000,281.591 248.124,281.742 248.276 C 282.229 248.762,292.182 251.892,292.669 251.712 C 293.497 251.405,293.584 250.459,292.927 248.910 C 292.575 248.079,292.146 246.860,291.974 246.200 C 291.802 245.540,290.864 242.660,289.889 239.800 C 288.915 236.940,287.442 232.530,286.616 230.000 C 285.790 227.470,284.890 224.860,284.616 224.200 C 284.343 223.540,283.091 219.850,281.835 216.000 C 280.579 212.150,279.229 208.100,278.836 207.000 C 277.347 202.837,277.121 202.168,276.805 201.000 C 276.627 200.340,275.651 197.370,274.637 194.400 C 273.624 191.430,272.411 187.830,271.942 186.400 C 271.473 184.970,270.873 183.260,270.607 182.600 C 270.341 181.940,269.806 180.320,269.417 179.000 C 269.028 177.680,268.370 175.721,267.955 174.647 C 267.540 173.572,267.200 172.520,267.200 172.307 C 267.200 172.095,266.959 171.354,266.665 170.660 C 266.371 169.967,265.370 167.060,264.440 164.200 C 263.510 161.340,262.602 158.640,262.423 158.200 C 262.244 157.760,261.574 155.793,260.934 153.829 C 259.863 150.539,259.178 149.462,258.676 150.279 M141.990 193.104 L 122.979 193.208 118.399 197.801 L 113.818 202.395 116.397 204.997 L 118.977 207.600 140.516 207.600 L 162.055 207.600 166.522 203.203 L 170.990 198.806 168.206 196.035 C 164.828 192.672,167.450 192.965,141.990 193.104 M172.989 205.952 C 171.015 207.899,168.455 210.496,167.300 211.722 L 165.200 213.952 165.200 231.339 L 165.200 248.726 166.740 251.663 C 168.292 254.622,169.256 256.363,171.578 260.400 C 172.274 261.610,172.945 262.915,173.069 263.300 C 173.625 265.034,176.908 262.670,178.700 259.245 L 179.600 257.524 179.600 231.443 L 179.600 205.362 178.089 203.887 L 176.578 202.411 172.989 205.952 M113.099 256.759 C 106.672 263.032,106.704 262.927,110.634 264.774 C 112.690 265.740,166.400 266.113,166.400 265.160 C 166.400 264.766,165.156 262.369,162.729 258.088 C 162.266 257.269,161.390 255.651,160.785 254.491 C 160.179 253.331,159.462 252.116,159.192 251.791 C 158.772 251.284,155.861 251.200,138.749 251.200 L 118.796 251.200 113.099 256.759 " stroke="none" fill="#f6f8fb" fill-rule="evenodd"></path><path id="path2" d="M81.000 112.498 C 78.941 112.898,76.302 113.970,76.067 114.500 C 75.993 114.665,75.755 114.800,75.538 114.800 C 75.320 114.800,74.239 115.655,73.136 116.700 C 71.328 118.412,70.347 119.982,69.195 123.012 C 68.953 123.650,68.804 152.352,68.795 200.364 L 68.780 276.701 69.963 279.258 C 71.844 283.321,74.652 285.835,79.200 287.530 C 81.446 288.366,319.040 288.588,320.839 287.755 C 321.368 287.511,322.463 287.025,323.273 286.675 C 326.586 285.244,329.490 282.118,330.900 278.465 L 332.000 275.615 331.996 200.508 C 331.991 118.503,332.138 123.756,329.724 119.634 C 327.748 116.260,324.080 113.518,320.400 112.666 C 317.985 112.107,83.852 111.942,81.000 112.498 M321.800 113.719 C 325.714 115.476,328.190 117.762,329.904 121.200 L 331.000 123.400 331.000 200.200 L 331.000 277.000 329.854 279.261 C 327.559 283.790,324.287 286.272,319.433 287.165 C 315.843 287.825,83.397 287.725,80.400 287.062 C 75.295 285.932,71.450 282.315,69.881 277.165 C 69.042 274.412,68.808 126.736,69.638 124.028 C 71.429 118.187,75.473 114.293,80.853 113.229 C 84.787 112.450,320.041 112.928,321.800 113.719 M81.793 118.758 C 79.403 119.118,76.971 121.032,75.797 123.475 L 74.800 125.550 74.800 200.493 L 74.800 275.435 76.100 277.600 C 77.103 279.270,77.891 280.021,79.546 280.883 L 81.691 282.000 199.899 282.000 C 290.079 282.000,318.484 281.887,319.695 281.524 C 321.965 280.844,324.504 278.223,325.325 275.712 C 326.340 272.609,326.368 126.981,325.354 124.549 C 324.391 122.240,323.302 120.878,321.457 119.678 L 319.800 118.600 201.600 118.558 C 136.590 118.535,82.677 118.625,81.793 118.758 M320.288 119.804 C 321.792 120.554,323.465 122.202,324.337 123.792 C 324.948 124.905,325.000 130.957,325.000 200.459 L 325.000 275.918 323.615 277.659 C 322.853 278.616,322.085 279.461,321.908 279.536 C 321.731 279.610,321.287 279.970,320.921 280.336 C 320.239 281.019,87.707 281.651,82.064 280.985 C 79.643 280.700,76.000 277.763,76.000 276.097 C 76.000 275.630,75.820 275.136,75.600 275.000 C 75.336 274.837,75.200 249.554,75.200 200.451 L 75.200 126.150 76.158 124.175 C 77.189 122.051,78.299 120.867,80.200 119.865 C 81.992 118.920,318.396 118.860,320.288 119.804 M112.000 134.400 C 112.000 134.620,111.612 134.800,111.138 134.800 C 109.853 134.800,106.986 137.027,105.486 139.189 C 104.735 140.271,104.562 142.000,105.203 142.000 C 105.425 142.000,106.352 142.540,107.263 143.200 C 108.175 143.860,109.071 144.400,109.256 144.400 C 109.536 144.400,112.448 146.130,115.822 148.301 C 118.156 149.803,118.061 149.798,144.285 149.909 L 169.970 150.017 170.542 149.109 C 170.856 148.609,171.336 147.480,171.608 146.600 C 171.880 145.720,172.349 144.522,172.651 143.938 C 172.953 143.354,173.199 142.634,173.199 142.338 C 173.198 141.850,174.699 137.880,175.694 135.738 C 175.914 135.264,175.973 134.679,175.824 134.438 C 175.461 133.851,112.000 133.813,112.000 134.400 M174.691 135.092 C 174.916 135.679,174.474 137.282,173.393 139.800 C 173.109 140.460,172.399 142.350,171.813 144.000 C 171.228 145.650,170.502 147.450,170.200 148.000 L 169.650 149.000 143.925 149.000 L 118.200 149.000 115.892 147.500 C 114.623 146.675,113.472 146.000,113.335 146.000 C 113.199 146.000,111.987 145.321,110.643 144.490 C 109.299 143.660,107.691 142.722,107.069 142.406 C 103.413 140.549,108.320 135.443,114.400 134.779 C 120.141 134.152,174.438 134.434,174.691 135.092 M104.015 148.182 C 103.711 148.548,103.614 155.737,103.691 172.122 L 103.800 195.539 105.581 197.183 C 107.872 199.298,107.486 199.484,113.793 193.228 L 119.209 187.855 119.105 172.273 L 119.000 156.690 115.302 154.359 C 113.268 153.077,110.748 151.552,109.702 150.970 C 108.656 150.388,107.046 149.406,106.124 148.786 C 104.779 147.882,104.363 147.763,104.015 148.182 M112.084 153.254 C 112.680 153.664,113.253 154.000,113.358 154.000 C 113.463 154.000,114.685 154.778,116.074 155.728 L 118.600 157.456 118.721 170.028 C 118.787 176.943,118.724 183.762,118.580 185.183 L 118.318 187.767 113.288 192.883 C 107.552 198.717,107.845 198.589,105.651 196.209 L 104.000 194.418 104.005 172.309 C 104.008 160.149,104.116 149.810,104.244 149.333 C 104.478 148.460,106.836 149.640,112.084 153.254 M258.075 149.900 C 257.880 150.285,257.314 151.860,256.816 153.400 C 256.318 154.940,255.661 156.791,255.356 157.514 C 255.050 158.236,254.800 159.093,254.800 159.419 C 254.800 159.745,254.622 160.323,254.405 160.705 C 254.188 161.087,253.011 164.460,251.790 168.200 C 250.569 171.940,249.397 175.313,249.185 175.695 C 248.973 176.077,248.800 176.664,248.800 177.000 C 248.800 177.336,248.633 177.923,248.428 178.305 C 248.224 178.687,247.516 180.710,246.854 182.800 C 246.193 184.890,245.431 187.230,245.161 188.000 C 244.069 191.119,242.863 194.711,242.274 196.600 C 241.610 198.732,241.217 199.878,239.736 204.008 C 239.221 205.443,238.800 206.928,238.800 207.308 C 238.800 207.689,238.620 208.000,238.400 208.000 C 238.180 208.000,238.001 208.315,238.002 208.700 C 238.004 209.336,237.162 212.189,236.379 214.200 C 236.208 214.640,235.761 215.990,235.386 217.200 C 235.010 218.410,234.574 219.670,234.416 220.000 C 234.258 220.330,233.802 221.680,233.402 223.000 C 233.002 224.320,232.523 225.571,232.337 225.780 C 232.152 225.989,231.999 226.529,231.998 226.980 C 231.996 227.431,231.726 228.316,231.398 228.946 C 231.069 229.576,230.800 230.485,230.800 230.966 C 230.800 231.447,230.642 232.011,230.449 232.220 C 230.256 232.429,229.793 233.590,229.421 234.800 C 229.048 236.010,228.603 237.360,228.431 237.800 C 227.802 239.415,227.122 241.430,226.810 242.600 C 226.635 243.260,225.940 245.330,225.266 247.200 C 223.561 251.934,224.678 253.522,228.540 251.856 C 230.197 251.141,237.033 248.826,238.749 248.398 C 239.491 248.213,240.292 247.868,240.529 247.631 C 240.766 247.394,241.235 247.200,241.572 247.200 C 241.908 247.200,243.357 246.771,244.792 246.247 C 246.226 245.723,250.068 244.362,253.329 243.223 L 259.258 241.152 262.129 242.223 C 263.708 242.813,265.360 243.439,265.800 243.616 C 266.240 243.793,269.840 245.026,273.800 246.356 C 285.779 250.380,288.173 251.211,288.815 251.563 C 292.124 253.380,295.089 251.743,293.649 248.895 C 293.121 247.850,291.529 243.140,291.319 242.000 C 291.218 241.450,290.900 240.460,290.613 239.800 C 290.025 238.448,287.697 231.634,287.197 229.800 C 287.017 229.140,286.677 228.060,286.442 227.400 C 285.143 223.764,283.474 218.846,283.185 217.800 C 282.753 216.240,280.091 208.436,279.637 207.400 C 279.445 206.960,278.787 204.980,278.175 203.000 C 277.564 201.020,276.824 198.833,276.532 198.140 C 276.239 197.446,276.000 196.679,276.000 196.434 C 276.000 196.189,275.839 195.677,275.643 195.295 C 275.446 194.913,274.800 193.070,274.207 191.200 C 273.613 189.330,272.969 187.440,272.774 187.000 C 272.000 185.255,269.200 176.333,269.200 175.613 C 269.200 175.192,269.044 174.751,268.854 174.633 C 268.663 174.516,267.916 172.570,267.193 170.310 C 266.470 168.049,265.726 166.029,265.539 165.820 C 265.353 165.611,265.200 165.024,265.200 164.515 C 265.200 164.006,265.030 163.277,264.823 162.895 C 264.616 162.513,263.867 160.400,263.159 158.200 C 262.450 156.000,261.720 154.029,261.535 153.820 C 261.351 153.611,261.200 153.041,261.200 152.552 C 261.200 150.237,258.893 148.279,258.075 149.900 M260.934 153.829 C 261.574 155.793,262.244 157.760,262.423 158.200 C 262.602 158.640,263.510 161.340,264.440 164.200 C 265.370 167.060,266.371 169.967,266.665 170.660 C 266.959 171.354,267.200 172.095,267.200 172.307 C 267.200 172.520,267.540 173.572,267.955 174.647 C 268.370 175.721,269.028 177.680,269.417 179.000 C 269.806 180.320,270.341 181.940,270.607 182.600 C 270.873 183.260,271.473 184.970,271.942 186.400 C 272.411 187.830,273.624 191.430,274.637 194.400 C 275.651 197.370,276.627 200.340,276.805 201.000 C 277.121 202.168,277.347 202.837,278.836 207.000 C 279.229 208.100,280.579 212.150,281.835 216.000 C 283.091 219.850,284.343 223.540,284.616 224.200 C 284.890 224.860,285.790 227.470,286.616 230.000 C 287.442 232.530,288.915 236.940,289.889 239.800 C 290.864 242.660,291.802 245.540,291.974 246.200 C 292.146 246.860,292.575 248.079,292.927 248.910 C 293.584 250.459,293.497 251.405,292.669 251.712 C 292.182 251.892,282.229 248.762,281.742 248.276 C 281.591 248.124,281.143 248.000,280.747 248.000 C 280.351 248.000,279.346 247.705,278.514 247.345 C 276.431 246.443,275.535 246.102,274.600 245.857 C 274.160 245.742,270.920 244.629,267.400 243.383 C 259.934 240.742,258.533 240.476,256.760 241.360 C 256.054 241.712,255.232 242.000,254.933 242.000 C 254.634 242.000,254.077 242.172,253.695 242.383 C 253.313 242.594,251.380 243.307,249.400 243.969 C 247.420 244.631,242.920 246.177,239.400 247.405 C 235.880 248.633,232.100 249.915,231.000 250.255 C 229.900 250.595,228.418 251.122,227.707 251.427 C 226.352 252.007,225.389 251.870,225.076 251.054 C 224.911 250.623,226.741 244.259,227.623 242.200 C 227.812 241.760,230.126 234.920,232.766 227.000 C 235.405 219.080,238.313 210.440,239.227 207.800 C 240.141 205.160,241.038 202.460,241.220 201.800 C 241.401 201.140,244.544 191.780,248.203 181.000 C 251.862 170.220,255.008 160.860,255.194 160.200 C 255.635 158.630,258.421 150.694,258.676 150.279 C 259.178 149.462,259.863 150.539,260.934 153.829 M124.784 192.438 C 122.599 192.673,122.505 192.739,118.118 197.066 C 112.729 202.381,112.802 202.106,115.907 205.360 L 118.414 207.988 140.488 208.007 L 162.561 208.026 166.880 203.720 C 169.256 201.351,171.200 199.156,171.200 198.841 C 171.200 198.152,166.506 193.125,165.467 192.701 C 164.580 192.338,127.914 192.102,124.784 192.438 M168.206 196.035 L 170.990 198.806 166.522 203.203 L 162.055 207.600 140.516 207.600 L 118.977 207.600 116.397 204.997 L 113.818 202.395 118.399 197.801 L 122.979 193.208 141.990 193.104 C 167.450 192.965,164.828 192.672,168.206 196.035 M170.300 207.591 L 164.800 213.087 164.800 231.454 C 164.800 246.728,164.896 249.959,165.372 250.638 C 165.686 251.087,166.703 252.882,167.631 254.627 C 168.559 256.372,169.832 258.700,170.459 259.800 C 171.086 260.900,171.914 262.473,172.299 263.296 C 173.514 265.889,176.436 264.498,179.083 260.068 L 180.200 258.200 180.311 231.827 L 180.422 205.453 178.728 203.727 C 176.442 201.398,176.548 201.349,170.300 207.591 M179.600 231.443 L 179.600 257.524 178.700 259.245 C 176.908 262.670,173.625 265.034,173.069 263.300 C 172.945 262.915,172.274 261.610,171.578 260.400 C 169.256 256.363,168.292 254.622,166.740 251.663 L 165.200 248.726 165.200 231.339 L 165.200 213.952 167.300 211.722 C 168.455 210.496,171.015 207.899,172.989 205.952 L 176.578 202.411 178.089 203.887 L 179.600 205.362 179.600 231.443 M118.772 250.744 C 118.277 250.908,117.522 251.612,111.300 257.716 C 105.804 263.107,105.804 263.101,110.674 265.415 L 112.749 266.400 139.694 266.400 C 159.389 266.400,166.763 266.277,167.098 265.942 C 167.541 265.499,166.027 262.235,163.416 258.000 C 162.941 257.230,161.958 255.430,161.231 254.000 C 160.505 252.570,159.762 251.240,159.580 251.045 C 159.273 250.715,119.739 250.423,118.772 250.744 M159.192 251.791 C 159.462 252.116,160.179 253.331,160.785 254.491 C 161.390 255.651,162.266 257.269,162.729 258.088 C 165.156 262.369,166.400 264.766,166.400 265.160 C 166.400 266.113,112.690 265.740,110.634 264.774 C 106.704 262.927,106.672 263.032,113.099 256.759 L 118.796 251.200 138.749 251.200 C 155.861 251.200,158.772 251.284,159.192 251.791 " stroke="none" fill="#919de7" fill-rule="evenodd"></path><path id="path3" d="M79.480 111.586 C 78.643 111.748,77.752 112.088,77.500 112.340 C 76.785 113.055,79.640 112.928,80.681 112.198 C 81.443 111.665,95.152 111.608,200.770 111.698 C 266.347 111.754,320.000 111.665,320.000 111.500 C 320.000 111.112,81.488 111.197,79.480 111.586 M320.900 111.865 C 319.921 112.260,320.422 112.800,321.767 112.800 C 322.518 112.800,323.199 112.998,323.280 113.239 C 323.360 113.481,323.870 113.602,324.413 113.510 C 325.329 113.353,325.343 113.319,324.600 113.039 C 324.160 112.873,323.322 112.481,322.738 112.169 C 322.154 111.856,321.614 111.614,321.538 111.632 C 321.462 111.649,321.175 111.754,320.900 111.865 M71.600 116.400 C 71.600 116.620,71.870 116.800,72.200 116.800 C 72.530 116.800,72.800 116.620,72.800 116.400 C 72.800 116.180,72.530 116.000,72.200 116.000 C 71.870 116.000,71.600 116.180,71.600 116.400 M330.300 119.388 C 330.495 120.409,331.600 121.671,331.600 120.873 C 331.600 120.639,331.420 120.336,331.200 120.200 C 330.980 120.064,330.800 119.603,330.800 119.176 C 330.800 118.749,330.645 118.400,330.455 118.400 C 330.266 118.400,330.196 118.845,330.300 119.388 M82.138 119.700 C 82.036 119.865,82.098 120.002,82.276 120.004 C 82.508 120.007,315.367 120.004,318.167 120.000 C 318.368 120.000,318.429 119.896,318.302 119.769 C 317.954 119.421,82.353 119.353,82.138 119.700 M319.800 120.800 C 319.936 121.020,320.294 121.200,320.597 121.200 C 320.899 121.200,321.260 121.560,321.400 122.000 C 321.550 122.474,322.005 122.800,322.516 122.800 C 323.299 122.800,323.257 122.689,322.064 121.600 C 320.833 120.475,319.255 119.917,319.800 120.800 M77.824 122.213 C 77.065 122.787,77.067 122.800,77.924 122.800 C 78.436 122.800,78.800 122.551,78.800 122.200 C 78.800 121.476,78.797 121.476,77.824 122.213 M68.446 122.267 C 68.421 122.524,68.284 123.064,68.141 123.467 C 67.940 124.036,67.994 124.097,68.379 123.742 C 68.652 123.491,68.789 122.951,68.684 122.542 C 68.579 122.134,68.472 122.010,68.446 122.267 M323.200 123.976 C 323.200 124.429,323.380 124.800,323.600 124.800 C 323.820 124.800,324.000 124.541,324.000 124.224 C 324.000 123.907,323.820 123.536,323.600 123.400 C 323.380 123.264,323.200 123.523,323.200 123.976 M332.596 200.000 C 332.596 242.130,332.643 259.365,332.700 238.300 C 332.757 217.235,332.757 182.765,332.700 161.700 C 332.643 140.635,332.596 157.870,332.596 200.000 M324.000 126.000 C 324.000 126.440,324.180 126.800,324.400 126.800 C 324.620 126.800,324.800 126.440,324.800 126.000 C 324.800 125.560,324.620 125.200,324.400 125.200 C 324.180 125.200,324.000 125.560,324.000 126.000 M67.102 201.600 C 67.046 241.860,67.111 274.800,67.248 274.800 C 67.384 274.800,67.607 274.125,67.743 273.300 C 68.179 270.664,68.040 128.400,67.602 128.400 C 67.340 128.400,67.169 153.396,67.102 201.600 M75.699 201.100 C 75.638 245.992,75.743 274.000,75.973 274.000 C 76.569 274.000,76.908 272.412,76.434 271.841 C 76.129 271.474,75.972 250.267,75.900 199.760 L 75.798 128.200 75.699 201.100 M140.800 133.204 L 111.800 133.408 143.167 133.504 C 160.418 133.557,174.436 133.503,174.317 133.384 C 173.946 133.013,170.583 132.994,140.800 133.204 M107.429 135.429 C 106.824 136.033,106.584 136.800,107.000 136.800 C 107.110 136.800,107.560 136.440,108.000 136.000 C 108.440 135.560,108.800 135.110,108.800 135.000 C 108.800 134.584,108.033 134.824,107.429 135.429 M175.473 136.661 C 175.074 137.060,175.139 138.800,175.553 138.800 C 176.033 138.800,176.369 137.397,176.024 136.838 C 175.871 136.591,175.623 136.511,175.473 136.661 M104.870 138.126 C 104.391 138.635,104.012 139.490,104.027 140.026 L 104.054 141.000 104.513 140.000 C 104.765 139.450,105.392 138.595,105.906 138.100 C 106.507 137.522,106.644 137.200,106.290 137.200 C 105.987 137.200,105.348 137.617,104.870 138.126 M173.433 142.600 C 173.273 143.040,172.975 143.713,172.771 144.095 C 172.567 144.477,172.400 145.071,172.400 145.414 C 172.400 145.758,172.117 146.587,171.771 147.256 C 171.425 147.925,171.259 148.771,171.401 149.136 C 171.779 150.106,173.200 148.273,173.200 146.815 C 173.200 146.213,173.395 145.161,173.633 144.478 C 173.871 143.795,173.989 142.913,173.895 142.518 C 173.739 141.862,173.699 141.869,173.433 142.600 M106.400 143.545 C 106.400 144.014,108.353 144.981,108.666 144.667 C 108.813 144.520,108.633 144.400,108.267 144.400 C 107.900 144.400,107.600 144.239,107.600 144.043 C 107.600 143.846,107.330 143.582,107.000 143.455 C 106.670 143.329,106.400 143.369,106.400 143.545 M105.200 147.200 C 105.200 147.420,105.380 147.600,105.600 147.600 C 105.820 147.600,106.000 147.870,106.000 148.200 C 106.000 148.549,106.363 148.800,106.870 148.800 L 107.739 148.800 106.800 147.800 C 105.817 146.754,105.200 146.522,105.200 147.200 M258.400 148.400 C 257.934 148.701,258.051 148.789,258.924 148.794 C 259.572 148.797,259.943 148.631,259.800 148.400 C 259.493 147.903,259.169 147.903,258.400 148.400 M109.200 150.353 C 109.200 150.548,109.515 150.806,109.900 150.928 C 110.285 151.049,111.272 151.554,112.092 152.049 C 113.772 153.061,114.686 152.760,113.177 151.691 C 110.999 150.148,109.200 149.543,109.200 150.353 M118.885 150.824 C 119.326 151.081,120.255 151.092,121.485 150.856 L 123.400 150.489 120.800 150.457 C 118.890 150.433,118.382 150.530,118.885 150.824 M136.700 150.700 C 142.695 150.762,152.505 150.762,158.500 150.700 C 164.495 150.638,159.590 150.587,147.600 150.587 C 135.610 150.587,130.705 150.638,136.700 150.700 M255.247 155.000 C 255.207 155.440,254.910 156.149,254.587 156.576 C 253.903 157.481,253.835 158.000,254.400 158.000 C 254.620 158.000,254.800 157.745,254.800 157.433 C 254.800 157.122,254.996 156.801,255.235 156.722 C 255.474 156.642,255.591 156.042,255.495 155.388 C 255.393 154.694,255.290 154.533,255.247 155.000 M263.200 157.000 C 263.200 157.550,263.380 158.000,263.600 158.000 C 263.820 158.000,264.000 157.550,264.000 157.000 C 264.000 156.450,263.820 156.000,263.600 156.000 C 263.380 156.000,263.200 156.450,263.200 157.000 M119.528 159.093 C 119.457 159.262,119.492 165.520,119.605 173.000 L 119.810 186.600 120.005 172.862 C 120.175 160.910,120.067 157.799,119.528 159.093 M252.267 163.867 C 251.852 164.282,251.953 165.600,252.400 165.600 C 252.620 165.600,252.800 165.150,252.800 164.600 C 252.800 163.553,252.708 163.426,252.267 163.867 M265.378 164.035 C 265.231 164.274,265.310 164.670,265.555 164.915 C 265.882 165.242,266.000 165.126,266.000 164.480 C 266.000 163.514,265.792 163.365,265.378 164.035 M249.864 170.280 C 249.499 170.984,249.214 172.064,249.232 172.680 C 249.249 173.297,249.361 173.531,249.480 173.200 C 249.600 172.870,249.963 172.022,250.287 171.315 C 251.087 169.573,250.710 168.651,249.864 170.280 M268.400 172.776 C 268.400 173.229,268.580 173.600,268.800 173.600 C 269.020 173.600,269.200 173.341,269.200 173.024 C 269.200 172.707,269.020 172.336,268.800 172.200 C 268.580 172.064,268.400 172.323,268.400 172.776 M248.000 176.824 C 248.000 177.277,248.180 177.536,248.400 177.400 C 248.620 177.264,248.800 176.893,248.800 176.576 C 248.800 176.259,248.620 176.000,248.400 176.000 C 248.180 176.000,248.000 176.371,248.000 176.824 M271.206 181.100 C 271.224 181.977,271.988 182.559,271.994 181.700 C 271.997 181.205,271.820 180.800,271.600 180.800 C 271.380 180.800,271.203 180.935,271.206 181.100 M246.212 181.717 C 246.041 182.112,246.013 182.547,246.151 182.684 C 246.557 183.090,246.884 182.520,246.697 181.731 C 246.532 181.033,246.510 181.032,246.212 181.717 M272.401 184.900 C 272.401 185.505,272.540 186.000,272.711 186.000 C 273.023 186.000,274.400 190.194,274.400 191.143 C 274.400 191.420,274.580 191.536,274.800 191.400 C 275.442 191.003,275.283 188.407,274.600 188.145 C 274.270 188.018,274.000 187.578,274.000 187.167 C 274.000 186.756,273.641 185.830,273.201 185.110 L 272.403 183.800 272.401 184.900 M244.239 187.800 C 243.282 190.239,243.116 190.850,243.346 191.079 C 243.486 191.219,243.600 191.042,243.600 190.687 C 243.600 190.331,243.885 189.880,244.233 189.686 C 244.652 189.451,244.813 188.938,244.709 188.166 C 244.571 187.141,244.514 187.097,244.239 187.800 M118.000 189.886 C 117.278 190.155,114.007 193.275,114.003 193.700 C 113.993 194.695,116.392 192.820,118.353 190.300 C 118.934 189.554,118.924 189.543,118.000 189.886 M122.992 191.213 C 122.852 191.439,123.456 191.600,124.443 191.600 C 126.362 191.600,126.386 191.426,124.516 191.071 C 123.809 190.936,123.123 191.000,122.992 191.213 M102.800 193.200 C 102.800 193.640,102.980 194.000,103.200 194.000 C 103.420 194.000,103.600 193.640,103.600 193.200 C 103.600 192.760,103.420 192.400,103.200 192.400 C 102.980 192.400,102.800 192.760,102.800 193.200 M241.060 196.893 C 240.931 197.384,241.000 197.960,241.213 198.173 C 241.462 198.422,241.600 198.104,241.600 197.280 C 241.600 195.784,241.389 195.633,241.060 196.893 M116.900 196.998 C 116.242 197.746,116.267 198.026,116.969 197.757 C 117.570 197.526,118.179 196.389,117.687 196.415 C 117.529 196.424,117.175 196.686,116.900 196.998 M105.064 198.178 C 104.913 198.570,105.047 198.800,105.425 198.800 C 105.755 198.800,106.129 199.070,106.255 199.400 C 106.510 200.064,108.000 200.235,108.000 199.600 C 108.000 199.380,107.787 199.200,107.526 199.200 C 107.265 199.200,106.658 198.830,106.177 198.378 C 105.425 197.672,105.269 197.644,105.064 198.178 M240.000 200.424 C 240.000 200.877,240.180 201.136,240.400 201.000 C 240.620 200.864,240.800 200.493,240.800 200.176 C 240.800 199.859,240.620 199.600,240.400 199.600 C 240.180 199.600,240.000 199.971,240.000 200.424 M170.572 200.445 C 170.271 200.933,171.169 201.666,171.681 201.350 C 171.856 201.242,172.000 200.893,172.000 200.576 C 172.000 199.898,170.969 199.803,170.572 200.445 M278.400 202.000 C 278.400 202.730,278.566 203.145,278.800 203.000 C 279.020 202.864,279.200 202.414,279.200 202.000 C 279.200 201.586,279.020 201.136,278.800 201.000 C 278.566 200.855,278.400 201.270,278.400 202.000 M178.000 202.000 C 178.000 202.444,178.267 202.800,178.600 202.800 C 178.930 202.800,179.200 203.070,179.200 203.400 C 179.200 203.730,179.380 204.000,179.600 204.000 C 179.820 204.000,180.000 203.730,180.000 203.400 C 180.000 203.070,179.808 202.800,179.573 202.800 C 179.328 202.800,179.254 202.459,179.400 202.000 C 179.598 201.376,179.472 201.200,178.827 201.200 C 178.267 201.200,178.000 201.458,178.000 202.000 M172.926 203.500 C 172.789 203.885,172.604 204.335,172.515 204.500 C 172.238 205.012,172.713 204.830,173.371 204.171 C 173.717 203.826,174.000 203.376,174.000 203.171 C 174.000 202.522,173.185 202.772,172.926 203.500 M113.200 203.786 C 113.200 204.108,113.560 204.565,114.000 204.800 C 114.440 205.035,114.800 205.132,114.800 205.014 C 114.800 204.896,114.440 204.440,114.000 204.000 C 113.395 203.395,113.200 203.343,113.200 203.786 M279.206 205.100 C 279.209 205.485,279.387 206.070,279.600 206.400 C 279.894 206.855,279.989 206.686,279.994 205.700 C 279.997 204.985,279.820 204.400,279.600 204.400 C 279.380 204.400,279.203 204.715,279.206 205.100 M165.050 206.050 C 164.127 207.128,164.450 207.450,165.400 206.400 C 165.801 205.957,166.045 205.512,165.943 205.410 C 165.841 205.307,165.439 205.596,165.050 206.050 M116.000 206.751 C 116.000 207.253,117.174 208.160,117.457 207.876 C 117.588 207.745,117.417 207.360,117.076 207.019 C 116.381 206.324,116.000 206.229,116.000 206.751 M129.900 208.700 C 135.675 208.762,145.125 208.762,150.900 208.700 C 156.675 208.637,151.950 208.586,140.400 208.586 C 128.850 208.586,124.125 208.637,129.900 208.700 M165.557 210.777 C 165.009 211.233,164.826 211.579,165.129 211.587 C 165.728 211.602,166.996 210.463,166.704 210.171 C 166.599 210.066,166.083 210.339,165.557 210.777 M236.300 211.431 C 236.135 211.597,236.000 212.099,236.000 212.547 C 236.000 213.135,236.121 213.239,236.438 212.922 C 236.678 212.682,236.813 212.180,236.738 211.807 C 236.662 211.433,236.465 211.264,236.300 211.431 M164.000 212.600 C 164.000 212.930,164.180 213.200,164.400 213.200 C 164.620 213.200,164.800 212.930,164.800 212.600 C 164.800 212.270,164.620 212.000,164.400 212.000 C 164.180 212.000,164.000 212.270,164.000 212.600 M283.602 217.420 C 283.601 217.871,283.765 218.411,283.966 218.620 C 284.168 218.829,284.413 219.450,284.512 220.000 L 284.691 221.000 284.746 219.946 C 284.775 219.366,284.531 218.376,284.202 217.746 C 283.705 216.792,283.605 216.737,283.602 217.420 M233.888 218.761 C 233.509 219.510,233.214 220.410,233.232 220.761 C 233.258 221.303,233.297 221.309,233.484 220.800 C 233.605 220.470,233.967 219.898,234.287 219.530 C 234.608 219.161,234.804 218.531,234.723 218.130 C 234.608 217.563,234.422 217.704,233.888 218.761 M164.165 231.800 C 164.166 235.760,164.226 237.326,164.298 235.280 C 164.371 233.234,164.371 229.994,164.298 228.080 C 164.224 226.166,164.165 227.840,164.165 231.800 M286.400 226.333 C 286.400 227.030,286.568 227.600,286.774 227.600 C 286.979 227.600,287.058 227.109,286.949 226.509 C 286.665 224.944,286.400 224.859,286.400 226.333 M231.293 226.800 C 231.293 227.570,231.375 227.885,231.476 227.500 C 231.576 227.115,231.576 226.485,231.476 226.100 C 231.375 225.715,231.293 226.030,231.293 226.800 M287.206 228.700 C 287.209 229.085,287.387 229.670,287.600 230.000 C 287.894 230.455,287.989 230.286,287.994 229.300 C 287.997 228.585,287.820 228.000,287.600 228.000 C 287.380 228.000,287.203 228.315,287.206 228.700 M289.272 234.869 C 289.342 235.346,289.601 235.804,289.848 235.885 C 290.130 235.977,290.223 235.657,290.101 235.016 C 289.865 233.781,289.092 233.644,289.272 234.869 M228.000 236.000 C 228.000 236.440,228.180 236.800,228.400 236.800 C 228.620 236.800,228.800 236.440,228.800 236.000 C 228.800 235.560,228.620 235.200,228.400 235.200 C 228.180 235.200,228.000 235.560,228.000 236.000 M290.406 237.924 C 290.402 238.972,290.557 239.550,290.800 239.400 C 291.307 239.086,291.307 237.585,290.800 236.800 C 290.516 236.361,290.411 236.663,290.406 237.924 M226.000 242.200 C 226.000 242.530,226.180 242.800,226.400 242.800 C 226.620 242.800,226.800 242.530,226.800 242.200 C 226.800 241.870,226.620 241.600,226.400 241.600 C 226.180 241.600,226.000 241.870,226.000 242.200 M258.084 242.215 C 257.644 242.714,257.762 242.801,258.884 242.805 C 259.608 242.808,260.605 242.919,261.100 243.052 C 262.512 243.430,262.152 242.616,260.672 242.080 C 259.004 241.477,258.722 241.492,258.084 242.215 M263.800 243.600 C 263.664 243.820,263.923 244.000,264.376 244.000 C 264.829 244.000,265.200 244.180,265.200 244.400 C 265.200 244.620,265.875 244.771,266.700 244.736 C 268.134 244.675,268.144 244.665,266.930 244.513 C 266.231 244.425,265.444 244.094,265.181 243.777 C 264.620 243.101,264.146 243.041,263.800 243.600 M248.000 245.600 C 247.534 245.901,247.651 245.989,248.524 245.994 C 249.172 245.997,249.543 245.831,249.400 245.600 C 249.093 245.103,248.769 245.103,248.000 245.600 M268.600 245.600 C 268.736 245.820,269.107 246.000,269.424 246.000 C 269.741 246.000,270.000 245.820,270.000 245.600 C 270.000 245.380,269.629 245.200,269.176 245.200 C 268.723 245.200,268.464 245.380,268.600 245.600 M244.400 246.800 C 244.400 247.020,244.839 247.200,245.376 247.200 C 245.913 247.200,246.464 247.020,246.600 246.800 C 246.744 246.567,246.337 246.400,245.624 246.400 C 244.951 246.400,244.400 246.580,244.400 246.800 M293.693 247.600 C 293.693 248.370,293.775 248.685,293.876 248.300 C 293.976 247.915,293.976 247.285,293.876 246.900 C 293.775 246.515,293.693 246.830,293.693 247.600 M241.800 247.600 C 241.660 247.827,241.996 248.000,242.576 248.000 C 243.139 248.000,243.600 247.820,243.600 247.600 C 243.600 247.380,243.251 247.200,242.824 247.200 C 242.397 247.200,241.936 247.380,241.800 247.600 M119.195 249.133 C 118.978 249.207,118.800 249.436,118.800 249.642 C 118.800 249.983,123.555 249.779,123.911 249.422 C 124.103 249.231,119.704 248.961,119.195 249.133 M294.501 250.200 C 294.505 251.080,294.587 251.393,294.683 250.895 C 294.779 250.398,294.775 249.678,294.675 249.295 C 294.575 248.913,294.496 249.320,294.501 250.200 M143.891 249.489 C 144.601 249.577,145.861 249.579,146.691 249.492 C 147.521 249.405,146.940 249.333,145.400 249.331 C 143.860 249.329,143.181 249.400,143.891 249.489 M152.100 249.476 C 152.485 249.576,153.115 249.576,153.500 249.476 C 153.885 249.375,153.570 249.293,152.800 249.293 C 152.030 249.293,151.715 249.375,152.100 249.476 M156.281 249.641 C 156.598 249.958,156.932 249.961,157.461 249.654 C 158.109 249.277,158.054 249.223,157.020 249.212 C 156.159 249.203,155.960 249.320,156.281 249.641 M163.785 249.951 C 164.157 251.123,166.476 254.458,166.737 254.196 C 166.993 253.941,165.503 251.200,165.109 251.200 C 164.939 251.200,164.800 250.952,164.800 250.649 C 164.800 250.346,164.504 249.852,164.142 249.552 C 163.555 249.065,163.517 249.108,163.785 249.951 M236.200 249.600 C 236.064 249.820,236.323 250.000,236.776 250.000 C 237.229 250.000,237.600 249.820,237.600 249.600 C 237.600 249.380,237.341 249.200,237.024 249.200 C 236.707 249.200,236.336 249.380,236.200 249.600 M280.600 249.600 C 280.453 249.838,280.890 249.989,281.676 249.972 C 282.779 249.948,282.867 249.886,282.200 249.600 C 281.115 249.134,280.888 249.134,280.600 249.600 M115.747 251.827 C 114.962 252.611,114.412 253.346,114.525 253.459 C 114.788 253.721,116.800 252.415,116.800 251.983 C 116.800 251.804,117.083 251.374,117.429 251.029 C 117.775 250.682,117.859 250.400,117.615 250.400 C 117.372 250.400,116.531 251.042,115.747 251.827 M283.700 250.676 C 284.085 250.776,284.715 250.776,285.100 250.676 C 285.485 250.575,285.170 250.493,284.400 250.493 C 283.630 250.493,283.315 250.575,283.700 250.676 M229.200 251.971 C 229.200 252.175,228.885 252.424,228.500 252.524 C 228.035 252.646,228.142 252.723,228.820 252.754 C 229.381 252.779,230.056 253.016,230.320 253.280 C 230.693 253.653,230.800 253.520,230.800 252.680 C 230.800 251.867,230.602 251.600,230.000 251.600 C 229.560 251.600,229.200 251.767,229.200 251.971 M287.600 251.892 C 287.930 252.017,288.290 252.245,288.400 252.398 C 288.763 252.903,290.746 253.211,290.999 252.801 C 291.144 252.566,290.740 252.400,290.024 252.400 C 289.351 252.400,288.800 252.220,288.800 252.000 C 288.800 251.780,288.395 251.614,287.900 251.632 C 287.299 251.653,287.199 251.739,287.600 251.892 M161.200 253.376 C 161.200 253.693,161.380 254.064,161.600 254.200 C 161.820 254.336,162.000 254.077,162.000 253.624 C 162.000 253.171,161.820 252.800,161.600 252.800 C 161.380 252.800,161.200 253.059,161.200 253.376 M111.198 256.185 C 110.429 257.167,109.652 257.977,109.471 257.985 C 109.061 258.004,108.000 259.044,108.000 259.427 C 108.000 259.584,107.685 259.951,107.300 260.243 C 106.847 260.587,106.782 260.779,107.116 260.787 C 107.735 260.803,110.800 257.844,110.800 257.231 C 110.800 256.994,110.993 256.800,111.229 256.800 C 111.767 256.800,112.800 255.789,112.800 255.262 C 112.800 255.045,113.025 254.776,113.300 254.665 C 113.641 254.527,113.609 254.453,113.198 254.432 C 112.867 254.414,111.967 255.203,111.198 256.185 M180.400 257.957 C 180.400 258.617,180.142 259.213,179.800 259.345 C 179.470 259.471,179.200 259.926,179.200 260.354 C 179.200 260.783,178.988 261.204,178.728 261.291 C 178.210 261.463,178.560 262.800,179.123 262.800 C 179.572 262.800,180.400 260.987,180.400 260.005 C 180.400 259.588,180.580 259.136,180.800 259.000 C 181.020 258.864,181.200 258.313,181.200 257.776 C 181.200 257.239,181.020 256.800,180.800 256.800 C 180.580 256.800,180.400 257.321,180.400 257.957 M171.206 263.100 C 171.203 263.595,171.380 264.000,171.600 264.000 C 172.101 264.000,172.101 263.576,171.600 262.800 C 171.286 262.315,171.211 262.372,171.206 263.100 M108.400 265.539 C 108.400 266.114,111.462 267.133,112.056 266.757 C 112.460 266.501,112.380 266.411,111.749 266.406 C 111.281 266.403,110.674 266.130,110.400 265.800 C 109.870 265.162,108.400 264.970,108.400 265.539 M324.000 275.400 C 324.000 275.730,324.180 276.000,324.400 276.000 C 324.620 276.000,324.800 275.730,324.800 275.400 C 324.800 275.070,324.620 274.800,324.400 274.800 C 324.180 274.800,324.000 275.070,324.000 275.400 M76.425 275.900 C 76.411 276.395,76.580 276.800,76.800 276.800 C 77.020 276.800,77.200 277.070,77.200 277.400 C 77.200 277.730,77.380 278.000,77.600 278.000 C 78.131 278.000,78.112 277.316,77.572 276.983 C 77.337 276.837,76.988 276.332,76.797 275.859 L 76.451 275.000 76.425 275.900 M320.441 279.073 C 319.693 279.583,318.658 280.000,318.141 280.000 C 317.623 280.000,317.200 280.180,317.200 280.400 C 317.200 281.170,319.793 280.777,320.949 279.832 C 322.527 278.541,322.118 277.930,320.441 279.073 M78.400 278.827 C 78.400 279.299,80.280 280.235,81.950 280.595 C 82.897 280.799,83.218 280.753,83.026 280.443 C 82.876 280.199,82.243 280.000,81.619 280.000 C 80.996 280.000,80.392 279.755,80.277 279.456 C 80.039 278.837,78.400 278.288,78.400 278.827 M71.600 283.551 C 71.600 283.744,71.870 284.126,72.200 284.400 C 72.701 284.816,72.800 284.758,72.800 284.049 C 72.800 283.561,72.545 283.200,72.200 283.200 C 71.870 283.200,71.600 283.358,71.600 283.551 M326.630 285.224 C 326.207 285.651,326.044 286.000,326.268 286.000 C 326.492 286.000,327.002 285.640,327.400 285.200 C 328.328 284.174,327.650 284.195,326.630 285.224 M77.200 287.600 C 77.200 287.820,77.605 287.997,78.100 287.994 C 78.828 287.989,78.885 287.914,78.400 287.600 C 77.624 287.099,77.200 287.099,77.200 287.600 M322.200 287.600 C 322.060 287.827,322.396 288.000,322.976 288.000 C 323.539 288.000,324.000 287.820,324.000 287.600 C 324.000 287.380,323.651 287.200,323.224 287.200 C 322.797 287.200,322.336 287.380,322.200 287.600 M80.505 288.687 C 81.114 288.779,82.014 288.777,82.505 288.682 C 82.997 288.587,82.500 288.511,81.400 288.514 C 80.300 288.517,79.897 288.595,80.505 288.687 M317.900 288.682 C 318.395 288.778,319.205 288.778,319.700 288.682 C 320.195 288.587,319.790 288.509,318.800 288.509 C 317.810 288.509,317.405 288.587,317.900 288.682 " stroke="none" fill="#5268ca" fill-rule="evenodd"></path><path id="path4" d="M320.000 111.500 C 320.000 111.665,266.347 111.754,200.770 111.698 C 91.420 111.604,81.469 111.650,80.670 112.244 L 79.800 112.891 80.800 112.551 C 82.366 112.017,316.670 111.870,318.510 112.402 C 319.976 112.825,321.634 112.168,320.914 111.448 C 320.571 111.104,320.000 111.137,320.000 111.500 M322.582 112.078 C 323.319 112.505,323.323 112.547,322.645 112.784 C 322.074 112.985,322.296 113.226,323.730 113.964 C 326.088 115.177,328.388 117.352,329.724 119.634 C 332.138 123.756,331.991 118.503,331.996 200.508 L 332.000 275.615 330.900 278.465 C 329.590 281.860,326.997 284.784,323.727 286.557 C 322.935 286.986,322.808 287.173,323.300 287.184 C 323.685 287.193,324.000 287.394,324.000 287.630 C 324.000 287.867,324.519 287.642,325.153 287.130 C 325.787 286.619,326.282 286.042,326.253 285.850 C 326.224 285.657,326.450 285.409,326.756 285.298 C 327.130 285.162,327.216 285.276,327.018 285.648 C 326.856 285.952,327.551 285.355,328.562 284.323 C 329.800 283.059,330.400 282.105,330.400 281.400 C 330.400 280.804,330.572 280.459,330.800 280.600 C 331.020 280.736,331.223 280.657,331.250 280.424 C 331.278 280.191,331.331 279.775,331.368 279.500 C 331.406 279.225,331.653 279.045,331.918 279.100 C 332.183 279.155,332.402 278.885,332.405 278.500 C 332.408 278.115,332.451 243.150,332.501 200.800 L 332.592 123.800 332.796 199.400 L 333.000 275.000 333.200 199.200 C 333.389 127.423,333.363 123.356,332.700 122.574 C 332.315 122.120,332.000 121.524,332.000 121.251 C 332.000 120.977,331.840 120.851,331.645 120.972 C 331.450 121.093,331.116 120.968,330.903 120.696 C 330.301 119.925,330.027 118.400,330.491 118.400 C 330.720 118.400,330.479 118.058,329.954 117.641 C 329.429 117.223,328.205 116.143,327.233 115.241 C 326.028 114.121,325.107 113.600,324.333 113.600 C 323.258 113.600,322.646 112.814,323.700 112.787 C 323.982 112.780,323.861 112.518,323.424 112.187 C 322.996 111.864,322.456 111.605,322.224 111.612 C 321.991 111.619,322.152 111.829,322.582 112.078 M74.800 114.016 C 73.590 114.667,72.375 115.200,72.100 115.200 C 71.825 115.200,71.600 115.380,71.600 115.600 C 71.600 115.820,71.870 116.000,72.200 116.000 C 72.530 116.000,72.800 116.201,72.800 116.447 C 72.800 116.702,72.444 116.800,71.968 116.676 C 71.361 116.517,71.196 116.612,71.356 117.029 C 71.476 117.343,71.401 117.600,71.187 117.600 C 70.974 117.600,70.800 117.793,70.800 118.029 C 70.800 118.264,70.530 118.727,70.200 119.057 C 69.870 119.387,69.600 120.015,69.600 120.452 C 69.600 120.889,69.431 121.143,69.225 121.015 C 69.018 120.888,68.793 121.462,68.725 122.292 C 68.647 123.236,68.413 123.763,68.100 123.700 C 67.539 123.588,67.485 123.813,67.435 126.499 C 67.416 127.543,67.537 128.398,67.705 128.399 C 68.272 128.401,67.867 274.511,67.300 274.700 C 67.025 274.792,66.800 275.032,66.800 275.233 C 66.800 275.756,68.289 277.178,68.557 276.910 C 68.680 276.787,68.787 242.338,68.795 200.357 C 68.804 152.350,68.953 123.650,69.195 123.012 C 70.347 119.982,71.328 118.412,73.136 116.700 C 74.239 115.655,75.335 114.800,75.571 114.800 C 75.807 114.800,76.000 114.620,76.000 114.400 C 76.000 114.180,76.236 114.000,76.524 114.000 C 76.811 114.000,77.396 113.736,77.824 113.413 C 79.290 112.303,77.212 112.718,74.800 114.016 M80.439 119.761 C 79.717 120.161,79.618 120.357,80.039 120.551 C 80.348 120.693,80.209 120.737,79.731 120.650 C 78.657 120.454,77.213 121.913,76.043 124.375 L 75.200 126.150 75.200 200.452 C 75.200 249.554,75.336 274.837,75.600 275.000 C 75.820 275.136,76.000 275.630,76.000 276.097 C 76.000 277.452,79.564 280.624,81.433 280.932 C 83.182 281.221,319.005 281.213,317.900 280.924 C 316.932 280.671,317.019 280.000,318.020 280.000 C 318.811 280.000,321.200 278.956,321.200 278.610 C 321.200 278.517,320.600 278.692,319.866 278.998 C 315.036 281.016,84.513 281.187,80.754 279.176 C 80.168 278.862,80.066 278.905,80.252 279.391 C 80.385 279.738,80.973 280.000,81.619 280.000 C 82.243 280.000,82.876 280.199,83.026 280.443 C 83.373 281.003,81.075 280.547,79.500 279.742 C 78.293 279.125,77.979 278.280,79.100 278.666 C 79.679 278.866,79.664 278.802,79.017 278.298 C 78.586 277.963,78.001 277.778,77.717 277.887 C 77.427 277.999,77.200 277.804,77.200 277.443 C 77.200 277.089,77.005 276.800,76.767 276.800 C 76.494 276.800,76.417 276.246,76.558 275.300 C 76.871 273.192,76.846 128.735,76.532 126.064 C 76.373 124.708,76.421 123.966,76.658 124.112 C 76.868 124.242,77.257 124.000,77.523 123.574 C 77.905 122.963,77.901 122.797,77.503 122.788 C 77.079 122.778,78.191 121.911,78.800 121.777 C 78.910 121.753,79.507 121.523,80.126 121.266 C 80.745 121.010,81.499 120.800,81.801 120.800 C 82.104 120.800,82.323 120.441,82.290 120.000 C 82.220 119.074,81.781 119.017,80.439 119.761 M143.332 119.500 C 172.775 119.557,220.835 119.557,250.132 119.500 C 279.430 119.443,255.340 119.397,196.600 119.397 C 137.860 119.397,113.890 119.443,143.332 119.500 M318.200 119.600 C 318.336 119.820,318.212 120.011,317.924 120.025 C 317.636 120.039,317.824 120.220,318.342 120.428 C 318.860 120.635,319.804 121.175,320.439 121.628 C 321.407 122.317,321.552 122.341,321.336 121.779 C 321.116 121.205,321.201 121.172,321.917 121.556 C 322.897 122.080,323.428 122.800,322.836 122.800 C 322.610 122.800,322.535 123.085,322.668 123.434 C 322.843 123.890,322.994 123.934,323.206 123.591 C 323.646 122.879,324.110 123.825,323.800 124.801 C 323.606 125.410,323.694 125.539,324.174 125.355 C 325.670 124.780,323.167 121.344,320.055 119.700 C 318.920 119.100,317.856 119.043,318.200 119.600 M143.100 120.300 C 174.835 120.356,226.765 120.356,258.500 120.300 C 290.235 120.243,264.270 120.197,200.800 120.197 C 137.330 120.197,111.365 120.243,143.100 120.300 M321.200 120.800 C 321.200 121.020,320.941 121.200,320.624 121.200 C 320.307 121.200,319.936 121.020,319.800 120.800 C 319.664 120.580,319.923 120.400,320.376 120.400 C 320.829 120.400,321.200 120.580,321.200 120.800 M324.600 126.515 C 324.126 127.090,324.426 271.760,324.903 272.236 C 325.070 272.403,325.202 239.568,325.197 199.270 C 325.192 158.971,325.145 126.007,325.094 126.015 C 325.042 126.024,324.820 126.249,324.600 126.515 M76.434 271.841 C 76.908 272.412,76.569 274.000,75.973 274.000 C 75.743 274.000,75.638 245.992,75.699 201.100 L 75.798 128.200 75.900 199.760 C 75.972 250.267,76.129 271.474,76.434 271.841 M66.996 200.200 C 66.996 239.360,67.043 255.321,67.100 235.668 C 67.157 216.016,67.157 183.976,67.100 164.468 C 67.043 144.961,66.996 161.040,66.996 200.200 M96.667 131.467 C 96.255 131.878,96.351 133.123,96.818 133.411 C 97.402 133.772,98.400 132.852,98.400 131.951 C 98.400 131.216,97.241 130.892,96.667 131.467 M107.195 134.409 C 106.210 136.250,106.006 137.200,106.597 137.200 C 106.922 137.200,107.083 136.960,106.964 136.652 C 106.748 136.088,107.766 134.800,108.429 134.800 C 109.024 134.800,108.856 135.493,108.200 135.745 C 107.870 135.871,107.600 136.170,107.600 136.408 C 107.600 136.646,108.202 136.382,108.938 135.820 C 109.674 135.259,110.664 134.800,111.138 134.800 C 111.612 134.800,112.000 134.620,112.000 134.400 C 112.000 133.645,175.576 133.871,175.866 134.627 C 175.998 134.972,175.902 135.458,175.653 135.707 C 175.112 136.248,175.045 136.943,175.566 136.621 C 175.767 136.497,176.016 136.621,176.119 136.898 C 176.243 137.228,176.414 137.139,176.620 136.637 C 176.813 136.167,176.710 135.476,176.351 134.837 L 175.769 133.800 141.679 133.736 C 108.932 133.674,107.574 133.701,107.195 134.409 M104.070 138.526 C 102.833 139.842,102.916 141.722,104.249 142.595 C 104.826 142.974,105.176 143.084,105.026 142.841 C 104.872 142.593,105.020 142.400,105.364 142.400 C 105.722 142.400,105.886 142.631,105.761 142.958 C 105.469 143.718,107.055 144.763,108.088 144.493 C 108.560 144.370,108.824 144.438,108.693 144.650 C 108.338 145.225,110.968 146.864,111.759 146.560 C 112.431 146.302,110.249 144.400,109.281 144.400 C 109.083 144.400,108.175 143.860,107.263 143.200 C 106.352 142.540,105.425 142.000,105.203 142.000 C 104.165 142.000,105.223 138.847,106.577 137.906 C 106.856 137.712,106.860 137.610,106.589 137.606 C 106.080 137.599,105.151 138.676,104.526 140.000 L 104.054 141.000 104.027 140.031 C 104.012 139.499,104.298 138.734,104.662 138.331 C 105.632 137.260,105.093 137.437,104.070 138.526 M174.100 139.643 C 173.118 142.012,173.004 142.568,173.570 142.219 C 173.773 142.093,174.022 142.307,174.123 142.695 C 174.224 143.083,174.328 142.534,174.354 141.476 C 174.379 140.418,174.560 139.651,174.755 139.772 C 174.950 139.893,175.332 139.723,175.604 139.396 C 175.909 139.027,175.938 138.800,175.678 138.800 C 175.448 138.800,175.200 138.501,175.129 138.135 C 175.056 137.759,174.608 138.416,174.100 139.643 M172.501 144.101 C 172.262 144.595,171.982 145.360,171.879 145.800 C 171.775 146.240,171.568 146.960,171.418 147.400 C 171.234 147.937,171.346 147.871,171.758 147.200 C 172.096 146.650,172.378 145.831,172.386 145.380 C 172.394 144.929,172.613 144.347,172.873 144.087 C 173.134 143.826,173.254 143.521,173.141 143.407 C 173.027 143.294,172.739 143.606,172.501 144.101 M173.467 145.400 C 173.296 146.280,173.085 147.344,172.998 147.765 C 172.858 148.449,172.906 148.466,173.446 147.925 C 173.855 147.516,174.007 146.748,173.915 145.560 L 173.778 143.800 173.467 145.400 M99.200 146.224 C 99.200 146.804,99.027 147.140,98.800 147.000 C 98.580 146.864,98.400 147.033,98.400 147.376 C 98.400 147.719,98.670 148.000,99.000 148.000 C 99.419 148.000,99.600 147.578,99.600 146.600 C 99.600 145.830,99.510 145.200,99.400 145.200 C 99.290 145.200,99.200 145.661,99.200 146.224 M104.376 147.500 C 103.846 148.105,103.668 148.377,103.981 148.105 C 104.437 147.708,104.692 147.740,105.275 148.267 C 105.922 148.854,106.000 148.857,106.000 148.295 C 106.000 147.950,105.775 147.586,105.500 147.488 C 105.225 147.390,105.136 147.164,105.302 146.987 C 105.467 146.809,106.061 147.094,106.621 147.620 C 107.433 148.382,107.517 148.619,107.039 148.788 C 106.603 148.942,106.816 149.246,107.820 149.904 C 108.918 150.623,109.200 150.684,109.200 150.204 C 109.200 149.846,108.833 149.598,108.300 149.594 C 107.614 149.589,107.535 149.503,107.966 149.229 C 108.422 148.941,108.292 148.630,107.297 147.635 C 105.786 146.125,105.589 146.116,104.376 147.500 M112.461 146.703 C 111.703 146.970,113.942 148.394,115.124 148.397 C 115.637 148.399,115.937 148.578,115.800 148.800 C 115.664 149.020,115.715 149.200,115.912 149.200 C 116.110 149.200,116.472 149.640,116.717 150.178 C 117.255 151.359,119.421 151.889,121.079 151.245 L 122.200 150.809 120.915 151.033 C 120.209 151.156,119.317 151.082,118.935 150.867 C 118.478 150.612,127.030 150.487,143.819 150.505 C 157.889 150.520,167.960 150.649,166.200 150.792 L 163.000 151.053 166.116 151.127 C 169.268 151.201,171.875 150.395,172.650 149.106 C 172.865 148.747,172.758 148.758,172.282 149.145 C 171.707 149.611,171.574 149.597,171.364 149.051 C 171.150 148.493,171.034 148.515,170.459 149.218 C 169.644 150.215,119.589 150.294,117.600 149.301 C 116.624 148.814,116.052 148.473,114.002 147.157 C 113.451 146.803,112.757 146.599,112.461 146.703 M257.652 148.537 C 257.407 148.832,257.315 149.182,257.447 149.314 C 257.579 149.446,257.295 150.104,256.816 150.777 C 256.337 151.450,256.138 152.000,256.373 152.000 C 256.608 152.000,256.800 152.180,256.800 152.400 C 256.800 152.620,256.530 152.800,256.200 152.800 C 255.530 152.800,255.448 153.132,255.578 155.300 C 255.631 156.168,255.486 156.800,255.234 156.800 C 254.995 156.800,254.800 157.070,254.800 157.400 C 254.800 157.730,254.538 158.000,254.219 158.000 C 253.628 158.000,252.806 160.248,252.802 161.876 C 252.801 162.358,252.620 162.864,252.400 163.000 C 252.180 163.136,252.000 163.427,252.000 163.647 C 252.000 163.867,252.180 163.936,252.400 163.800 C 252.620 163.664,252.809 163.788,252.821 164.076 C 252.839 164.536,253.137 163.869,254.377 160.600 C 255.066 158.782,255.689 156.929,255.990 155.800 C 256.965 152.145,258.237 149.395,259.002 149.291 C 259.860 149.173,261.200 151.061,261.200 152.387 C 261.200 153.643,262.296 155.441,262.515 154.546 C 262.616 154.136,262.637 154.430,262.562 155.200 C 262.487 155.970,262.597 156.870,262.807 157.200 C 263.116 157.687,263.189 157.636,263.194 156.933 C 263.197 156.457,263.417 155.994,263.682 155.906 C 264.019 155.794,263.898 155.294,263.282 154.250 C 262.797 153.427,262.387 152.450,262.372 152.077 C 262.349 151.517,262.278 151.538,261.964 152.200 C 261.657 152.849,261.620 152.767,261.769 151.767 C 261.962 150.476,260.788 148.000,259.982 148.000 C 259.746 148.000,259.664 148.180,259.800 148.400 C 259.943 148.631,259.572 148.797,258.924 148.794 C 258.051 148.789,257.934 148.701,258.400 148.400 C 258.730 148.187,258.797 148.009,258.549 148.006 C 258.301 148.003,257.897 148.242,257.652 148.537 M102.860 150.126 C 102.509 151.119,102.428 152.167,102.627 153.126 C 103.059 155.207,102.816 191.314,102.367 191.780 C 101.706 192.465,101.982 194.264,102.900 195.257 C 103.395 195.792,104.037 196.754,104.327 197.394 C 104.683 198.180,104.953 198.399,105.157 198.070 C 105.378 197.711,105.654 197.797,106.191 198.391 C 106.594 198.836,107.166 199.200,107.462 199.200 C 107.758 199.200,108.000 199.374,108.000 199.587 C 108.000 199.801,108.270 199.871,108.600 199.745 C 108.930 199.618,109.200 199.154,109.200 198.714 C 109.200 198.168,109.390 197.987,109.800 198.145 C 110.165 198.285,110.400 198.145,110.400 197.787 C 110.400 197.464,110.625 197.245,110.900 197.300 C 111.175 197.355,111.355 197.175,111.300 196.900 C 111.245 196.625,111.461 196.400,111.780 196.400 C 112.099 196.400,112.504 196.154,112.680 195.854 C 112.856 195.554,113.540 195.029,114.200 194.688 C 115.361 194.088,118.423 191.200,117.898 191.200 C 117.755 191.200,117.027 191.830,116.279 192.600 C 115.035 193.881,114.000 194.396,114.000 193.734 C 114.000 193.289,117.370 190.006,117.830 190.003 C 119.344 189.992,121.837 182.588,120.861 181.000 C 120.726 180.780,120.510 175.830,120.380 170.000 L 120.145 159.400 119.981 173.000 L 119.816 186.600 119.600 173.200 L 119.384 159.800 119.292 173.832 L 119.200 187.864 113.788 193.232 C 110.812 196.184,108.149 198.651,107.870 198.714 C 107.187 198.867,104.177 196.027,103.826 194.900 C 103.672 194.405,103.378 194.000,103.173 194.000 C 102.668 194.000,102.696 192.501,103.203 192.332 C 103.470 192.243,103.572 184.793,103.503 170.399 C 103.414 151.533,103.327 148.805,102.860 150.126 M113.179 151.641 C 113.886 152.230,114.020 152.540,113.663 152.761 C 113.340 152.961,114.176 153.686,116.085 154.862 C 118.424 156.303,119.039 156.889,119.200 157.829 C 119.460 159.354,120.402 159.568,120.394 158.100 C 120.389 157.218,120.305 157.119,119.970 157.600 C 119.658 158.048,119.615 157.876,119.802 156.924 C 120.041 155.710,119.974 155.624,118.442 155.165 C 117.458 154.871,116.086 153.929,114.916 152.746 C 113.862 151.681,112.820 150.813,112.600 150.818 C 112.380 150.823,112.640 151.193,113.179 151.641 M264.051 157.067 C 264.023 157.543,263.816 157.995,263.591 158.070 C 263.331 158.156,263.416 158.934,263.823 160.203 C 264.678 162.867,265.255 164.013,265.628 163.783 C 265.797 163.678,265.669 163.060,265.345 162.409 C 265.020 161.759,264.607 160.095,264.428 158.713 C 264.248 157.331,264.079 156.590,264.051 157.067 M266.000 164.757 C 266.000 165.027,265.820 165.136,265.600 165.000 C 265.113 164.699,265.069 165.293,265.539 165.820 C 265.726 166.029,266.470 168.049,267.193 170.310 C 267.916 172.570,268.663 174.516,268.854 174.633 C 269.044 174.751,269.208 175.242,269.218 175.724 C 269.244 177.037,272.361 185.959,272.388 184.800 C 272.407 184.005,272.492 183.923,272.800 184.400 C 273.334 185.226,273.287 184.874,272.612 183.000 C 272.295 182.120,272.022 181.670,272.005 182.000 C 271.984 182.441,271.856 182.394,271.524 181.821 C 271.222 181.301,271.209 180.997,271.485 180.905 C 271.733 180.822,271.600 180.184,271.149 179.299 C 270.737 178.492,270.387 177.284,270.372 176.615 C 270.347 175.548,270.298 175.497,269.966 176.200 C 269.643 176.885,269.610 176.842,269.739 175.900 C 269.822 175.295,269.734 174.800,269.545 174.800 C 269.355 174.800,269.200 174.530,269.200 174.200 C 269.200 173.870,269.020 173.600,268.800 173.600 C 268.580 173.600,268.400 173.229,268.400 172.776 C 268.400 172.323,268.580 172.064,268.800 172.200 C 269.348 172.539,269.305 170.944,268.737 169.883 C 268.291 169.049,268.265 169.046,268.002 169.794 C 267.797 170.379,267.662 170.149,267.457 168.867 C 267.307 167.929,267.026 167.260,266.832 167.380 C 266.639 167.500,266.480 166.956,266.480 166.172 C 266.480 165.388,266.372 164.639,266.240 164.507 C 266.108 164.375,266.000 164.487,266.000 164.757 M251.217 167.464 C 250.559 170.775,250.868 171.070,251.852 168.069 C 252.415 166.353,252.502 165.611,252.175 165.306 C 251.852 165.004,251.588 165.601,251.217 167.464 M250.011 171.771 C 249.785 172.365,249.582 173.065,249.560 173.326 C 249.538 173.587,249.376 173.350,249.200 172.800 C 248.919 171.923,248.875 171.994,248.840 173.369 C 248.818 174.239,248.495 175.274,248.114 175.695 C 247.641 176.218,247.452 177.033,247.506 178.326 C 247.553 179.475,247.452 179.992,247.245 179.663 C 246.791 178.941,246.432 180.760,246.819 181.827 C 247.038 182.434,247.197 182.213,247.558 180.800 C 247.811 179.810,248.194 178.687,248.409 178.305 C 248.910 177.416,248.906 177.087,248.400 177.400 C 248.180 177.536,248.000 177.290,248.000 176.853 C 248.000 176.416,248.283 176.000,248.630 175.929 C 249.257 175.801,251.043 171.310,250.632 170.898 C 250.517 170.783,250.237 171.176,250.011 171.771 M245.725 183.900 C 245.565 184.505,245.479 185.225,245.535 185.500 C 245.590 185.775,245.490 186.000,245.314 186.000 C 245.137 186.000,244.756 186.379,244.467 186.842 C 244.178 187.305,244.134 187.564,244.370 187.418 C 244.607 187.272,244.800 187.373,244.800 187.643 C 244.800 188.477,245.199 187.792,246.016 185.556 C 246.909 183.112,246.954 182.800,246.408 182.800 C 246.192 182.800,245.884 183.295,245.725 183.900 M273.500 185.621 C 273.775 185.918,274.000 186.555,274.000 187.037 C 274.000 187.520,274.270 188.018,274.600 188.145 C 275.283 188.407,275.431 190.809,274.803 191.437 C 274.430 191.810,274.656 192.893,275.631 195.400 C 275.802 195.840,276.017 196.470,276.110 196.800 C 276.203 197.130,276.490 196.428,276.748 195.241 C 277.137 193.448,277.120 192.973,276.642 192.441 C 276.326 192.088,275.938 191.080,275.780 190.200 C 275.446 188.347,274.240 185.783,273.506 185.368 C 273.101 185.140,273.100 185.190,273.500 185.621 M273.243 188.000 C 273.253 188.330,273.516 189.230,273.827 190.000 L 274.393 191.400 274.151 190.000 C 273.876 188.413,273.211 186.948,273.243 188.000 M242.781 192.300 C 241.869 194.191,241.498 195.506,241.542 196.689 C 241.590 197.975,241.474 198.327,241.054 198.166 C 240.334 197.889,239.813 199.237,240.481 199.650 C 241.076 200.018,241.324 199.641,242.216 197.014 C 242.716 195.542,242.756 195.020,242.387 194.792 C 242.028 194.570,242.062 194.404,242.517 194.147 C 243.190 193.766,244.919 189.600,244.403 189.600 C 244.227 189.600,243.497 190.815,242.781 192.300 M122.642 190.615 C 122.289 190.968,122.000 191.604,122.000 192.029 C 122.000 192.453,121.837 192.800,121.637 192.800 C 121.117 192.800,117.826 196.133,117.668 196.819 C 117.509 197.508,116.762 198.024,116.319 197.750 C 116.144 197.642,116.000 197.737,116.000 197.963 C 116.000 198.503,113.744 200.800,113.213 200.800 C 112.558 200.800,112.557 203.875,113.212 204.558 C 113.405 204.758,113.450 204.511,113.314 203.994 L 113.074 203.074 113.937 203.937 C 114.889 204.889,115.078 205.414,114.300 204.947 C 113.956 204.740,113.970 204.856,114.345 205.319 C 114.645 205.689,115.048 205.894,115.241 205.775 C 115.433 205.656,115.498 205.801,115.384 206.098 C 115.270 206.395,115.610 207.046,116.140 207.544 L 117.104 208.450 140.252 208.452 C 153.558 208.454,163.060 208.601,162.600 208.799 C 161.902 209.100,161.890 209.147,162.511 209.172 C 163.389 209.207,166.859 205.588,166.608 204.900 C 166.507 204.625,166.658 204.400,166.943 204.400 C 167.228 204.400,167.883 203.950,168.400 203.400 C 168.917 202.850,169.634 202.400,169.993 202.400 C 170.353 202.400,170.996 202.117,171.424 201.770 C 171.851 201.424,172.011 201.232,171.781 201.344 C 171.166 201.642,170.252 200.963,170.572 200.445 C 170.724 200.200,171.107 200.000,171.424 200.000 C 172.576 200.000,170.405 195.484,168.991 194.941 C 168.669 194.817,168.504 194.555,168.626 194.358 C 168.748 194.161,168.457 194.000,167.981 194.000 C 167.369 194.000,167.183 193.821,167.348 193.391 C 168.177 191.231,167.795 191.196,144.440 191.302 C 132.580 191.356,122.956 191.271,123.054 191.113 C 123.151 190.955,123.719 190.887,124.316 190.961 C 124.912 191.036,125.130 191.011,124.800 190.905 C 124.470 190.800,123.994 190.547,123.742 190.343 C 123.447 190.104,123.057 190.200,122.642 190.615 M164.300 192.530 C 165.235 192.625,166.000 192.544,166.000 192.351 C 166.000 192.158,166.199 192.000,166.443 192.000 C 166.686 192.000,166.776 192.285,166.642 192.634 C 166.479 193.060,167.189 194.091,168.799 195.768 C 171.595 198.680,171.660 198.997,169.816 200.785 C 169.054 201.523,168.543 202.323,168.680 202.563 C 168.816 202.804,168.774 202.860,168.586 202.688 C 168.397 202.517,166.963 203.647,165.399 205.201 L 162.555 208.026 140.485 208.007 L 118.414 207.988 115.907 205.360 C 112.802 202.106,112.729 202.381,118.118 197.066 C 122.505 192.739,122.599 192.673,124.784 192.438 C 127.223 192.176,161.579 192.256,164.300 192.530 M276.655 197.510 C 276.500 197.762,276.538 198.290,276.740 198.684 C 276.941 199.078,277.515 200.750,278.014 202.400 C 278.513 204.050,278.999 205.175,279.094 204.900 C 279.433 203.918,280.000 204.423,279.994 205.700 C 279.989 206.686,279.894 206.855,279.600 206.400 C 278.983 205.446,279.139 206.592,279.798 207.854 C 280.392 208.994,280.395 208.987,280.398 206.719 C 280.401 203.951,279.735 202.190,278.937 202.852 C 278.507 203.209,278.400 203.045,278.400 202.025 C 278.400 201.279,278.565 200.855,278.800 201.000 C 279.313 201.317,279.303 201.107,278.744 199.726 L 278.288 198.600 277.984 199.600 L 277.680 200.600 277.612 199.600 C 277.510 198.098,276.992 196.966,276.655 197.510 M105.400 199.600 C 105.798 200.040,106.501 200.386,106.962 200.368 C 107.549 200.346,107.620 200.269,107.200 200.110 C 106.870 199.985,106.456 199.639,106.280 199.341 C 106.104 199.044,105.671 198.800,105.318 198.800 C 104.756 198.800,104.766 198.900,105.400 199.600 M176.060 200.930 C 174.854 201.772,174.382 202.800,175.200 202.800 C 175.420 202.800,175.600 202.620,175.600 202.400 C 175.600 201.490,177.140 202.104,178.597 203.597 C 179.725 204.752,180.249 205.056,180.490 204.697 C 180.680 204.415,180.707 204.703,180.553 205.362 C 180.354 206.215,180.461 206.655,180.953 207.015 C 181.541 207.445,181.548 207.534,181.012 207.740 C 180.270 208.025,180.059 256.800,180.800 256.800 C 181.020 256.800,181.200 257.239,181.200 257.776 C 181.200 259.167,180.410 259.491,180.354 258.124 C 180.319 257.283,180.258 257.202,180.111 257.800 C 180.002 258.240,179.728 258.829,179.500 259.109 C 179.185 259.497,179.256 259.553,179.798 259.345 C 180.537 259.062,180.551 260.150,179.833 262.200 C 179.679 262.640,179.945 262.291,180.425 261.425 L 181.296 259.849 181.226 234.162 C 181.178 216.504,181.288 208.393,181.578 208.214 C 182.269 207.786,182.065 206.550,180.917 204.209 C 179.920 202.176,179.200 201.418,179.200 202.400 C 179.200 202.620,178.930 202.800,178.600 202.800 C 177.935 202.800,177.764 201.345,178.404 201.132 C 178.626 201.058,178.470 200.786,178.057 200.528 C 177.443 200.145,177.077 200.219,176.060 200.930 M239.268 201.605 C 238.981 202.592,238.584 203.940,238.386 204.600 C 237.784 206.607,236.775 211.709,236.947 211.880 C 237.172 212.105,238.000 209.637,238.000 208.740 C 238.000 208.333,238.180 208.000,238.400 208.000 C 238.620 208.000,238.800 207.674,238.800 207.276 C 238.800 206.878,239.250 205.403,239.800 204.000 C 240.878 201.251,241.008 200.624,240.430 200.981 C 240.227 201.107,240.000 200.895,239.926 200.510 C 239.850 200.114,239.563 200.591,239.268 201.605 M173.764 202.700 C 174.064 203.666,173.328 204.797,172.865 204.081 C 172.516 203.541,168.800 207.456,168.800 208.364 C 168.800 208.604,168.530 208.800,168.200 208.800 C 167.870 208.800,167.621 208.935,167.647 209.100 C 167.772 209.890,167.549 210.140,167.200 209.600 C 166.872 209.092,166.811 209.112,166.806 209.729 C 166.799 210.587,165.879 211.606,165.129 211.587 C 164.824 211.579,165.000 211.240,165.544 210.787 C 166.172 210.264,166.293 210.000,165.906 210.000 C 165.068 210.000,163.653 211.666,164.300 211.892 C 164.975 212.128,164.939 213.200,164.255 213.200 C 163.637 213.200,163.622 213.687,163.571 235.335 C 163.543 247.127,163.620 248.959,164.169 249.566 C 164.516 249.949,164.800 250.474,164.800 250.731 C 164.800 250.989,164.951 251.200,165.136 251.200 C 165.320 251.200,165.687 251.673,165.951 252.252 C 166.214 252.830,166.529 253.204,166.651 253.083 C 166.772 252.961,166.405 252.176,165.836 251.338 L 164.800 249.814 164.800 231.434 L 164.800 213.053 169.809 208.183 C 173.448 204.646,174.750 203.134,174.566 202.657 C 174.227 201.773,173.488 201.813,173.764 202.700 M180.000 203.400 C 180.000 203.730,179.820 204.000,179.600 204.000 C 179.380 204.000,179.200 203.730,179.200 203.400 C 179.200 203.070,179.380 202.800,179.600 202.800 C 179.820 202.800,180.000 203.070,180.000 203.400 M165.400 206.400 C 164.450 207.450,164.127 207.128,165.050 206.050 C 165.439 205.596,165.841 205.307,165.943 205.410 C 166.045 205.512,165.801 205.957,165.400 206.400 M117.076 207.019 C 117.417 207.360,117.588 207.745,117.457 207.876 C 117.174 208.160,116.000 207.253,116.000 206.751 C 116.000 206.229,116.381 206.324,117.076 207.019 M280.681 208.934 C 280.457 209.518,281.428 213.039,282.771 216.511 C 282.960 217.000,283.441 218.435,283.840 219.700 C 284.699 222.423,285.218 222.660,285.153 220.300 C 285.108 218.705,285.087 218.674,284.800 219.800 L 284.495 221.000 284.447 219.924 C 284.421 219.332,284.220 218.736,284.000 218.600 C 283.780 218.464,283.611 217.958,283.625 217.476 L 283.651 216.600 284.012 217.500 C 284.429 218.535,284.800 218.675,284.800 217.796 C 284.800 217.464,284.440 216.884,284.000 216.507 C 283.560 216.130,283.200 215.592,283.200 215.311 C 283.200 215.030,283.020 214.800,282.800 214.800 C 282.580 214.800,282.400 214.181,282.400 213.424 C 282.400 212.667,282.215 211.933,281.989 211.793 C 281.764 211.654,281.612 211.328,281.652 211.070 C 281.693 210.811,281.622 210.330,281.495 210.000 C 281.368 209.670,281.192 209.139,281.105 208.820 C 280.980 208.362,280.891 208.386,280.681 208.934 M120.905 209.087 C 121.514 209.179,122.414 209.177,122.905 209.082 C 123.397 208.987,122.900 208.911,121.800 208.914 C 120.700 208.917,120.297 208.995,120.905 209.087 M236.100 213.088 C 235.825 213.186,235.600 213.664,235.600 214.149 C 235.600 214.634,235.275 215.669,234.877 216.449 C 234.344 217.495,234.289 217.867,234.668 217.867 C 234.951 217.867,235.379 217.222,235.619 216.433 C 235.859 215.645,236.253 214.595,236.495 214.101 C 236.978 213.112,236.863 212.816,236.100 213.088 M234.073 219.687 C 233.813 219.947,233.600 220.405,233.600 220.704 C 233.600 221.003,233.420 221.136,233.200 221.000 C 232.969 220.857,232.800 221.236,232.800 221.896 C 232.800 222.525,232.584 223.256,232.320 223.520 C 231.947 223.893,231.988 224.000,232.505 224.000 C 232.948 224.000,233.320 223.435,233.624 222.300 C 233.874 221.365,234.266 220.371,234.496 220.090 C 235.045 219.421,234.684 219.076,234.073 219.687 M285.245 223.600 C 285.481 224.370,285.818 225.540,285.996 226.200 C 286.309 227.365,286.319 227.353,286.350 225.800 C 286.371 224.780,286.099 223.837,285.600 223.200 L 284.818 222.200 285.245 223.600 M231.226 225.308 C 231.034 225.799,230.663 227.280,230.402 228.600 C 230.141 229.920,229.610 231.931,229.221 233.069 C 228.833 234.207,228.642 235.345,228.798 235.596 C 228.958 235.855,229.305 235.255,229.595 234.217 C 229.878 233.206,230.265 232.283,230.455 232.166 C 230.645 232.049,230.800 231.534,230.800 231.022 C 230.800 230.510,231.069 229.576,231.398 228.946 C 231.726 228.316,231.996 227.406,231.998 226.924 C 231.999 226.442,232.180 225.936,232.400 225.800 C 232.985 225.439,232.889 224.920,232.188 224.651 C 231.792 224.499,231.452 224.731,231.226 225.308 M164.298 235.280 C 164.226 237.326,164.166 235.760,164.165 231.800 C 164.165 227.840,164.224 226.166,164.298 228.080 C 164.371 229.994,164.371 233.234,164.298 235.280 M231.476 227.500 C 231.375 227.885,231.293 227.570,231.293 226.800 C 231.293 226.030,231.375 225.715,231.476 226.100 C 231.576 226.485,231.576 227.115,231.476 227.500 M288.011 229.600 C 287.993 230.395,287.908 230.477,287.600 230.000 C 286.971 229.027,287.141 229.956,288.044 232.433 C 288.712 234.264,288.994 234.650,289.394 234.277 C 290.002 233.708,289.734 232.800,288.957 232.800 C 288.638 232.800,288.412 232.416,288.428 231.900 C 288.455 231.041,288.472 231.037,288.800 231.800 C 289.372 233.131,289.228 231.912,288.612 230.200 C 288.143 228.900,288.031 228.788,288.011 229.600 M290.146 235.132 C 290.296 235.848,290.200 236.009,289.726 235.827 C 289.262 235.649,289.183 235.764,289.405 236.295 C 289.567 236.683,289.838 237.540,290.009 238.200 C 290.308 239.361,290.320 239.348,290.365 237.800 C 290.400 236.610,290.512 236.354,290.800 236.800 C 291.487 237.863,291.260 236.344,290.561 235.200 C 289.957 234.212,289.952 234.211,290.146 235.132 M227.540 237.171 C 227.507 237.847,227.462 238.625,227.440 238.900 C 227.418 239.175,226.995 239.766,226.500 240.213 C 226.005 240.660,225.600 241.403,225.600 241.864 C 225.600 242.325,225.336 243.335,225.013 244.107 C 224.690 244.880,224.375 246.252,224.313 247.156 C 224.251 248.059,224.079 248.799,223.932 248.799 C 223.387 248.801,223.130 251.234,223.614 251.816 C 224.466 252.843,225.328 252.567,224.624 251.493 C 224.079 250.661,224.145 250.267,225.404 246.793 C 226.160 244.707,226.603 242.940,226.389 242.867 C 225.800 242.665,225.923 241.600,226.536 241.600 C 227.126 241.600,228.000 239.964,228.000 238.861 C 228.000 238.476,228.204 237.956,228.454 237.706 C 228.793 237.367,228.743 237.085,228.254 236.597 C 227.649 235.991,227.596 236.034,227.540 237.171 M291.254 238.220 C 291.225 238.671,291.004 239.236,290.765 239.475 C 290.452 239.788,290.453 239.985,290.768 240.180 C 291.328 240.526,291.715 239.529,291.486 238.329 C 291.332 237.521,291.302 237.507,291.254 238.220 M291.308 241.800 C 291.499 243.035,293.025 247.661,293.649 248.895 C 294.138 249.863,294.087 251.499,293.557 251.826 C 293.248 252.018,293.278 252.213,293.657 252.476 C 294.054 252.751,293.985 252.797,293.400 252.648 C 292.960 252.535,291.880 252.320,291.000 252.169 C 290.120 252.019,289.220 251.764,289.000 251.603 C 288.324 251.108,286.272 250.652,284.800 250.669 C 283.854 250.680,283.720 250.627,284.388 250.507 C 285.442 250.318,281.961 248.779,280.200 248.656 C 279.760 248.625,279.310 248.488,279.200 248.352 C 278.574 247.574,268.397 244.502,267.238 244.740 L 265.978 245.000 267.373 245.435 C 268.140 245.675,268.674 245.720,268.560 245.535 C 268.446 245.351,268.723 245.200,269.176 245.200 C 269.629 245.200,270.000 245.341,270.000 245.513 C 270.000 245.685,270.855 246.057,271.900 246.339 C 272.945 246.622,274.113 247.021,274.495 247.227 C 274.877 247.432,275.562 247.600,276.018 247.600 C 276.474 247.600,276.757 247.746,276.647 247.923 C 276.466 248.217,279.346 249.251,280.800 249.414 C 283.042 249.666,283.044 249.667,282.000 249.976 C 280.731 250.351,282.852 251.029,286.500 251.415 C 287.765 251.548,288.800 251.825,288.800 252.029 C 288.800 252.233,289.351 252.400,290.024 252.400 C 290.737 252.400,291.144 252.567,291.000 252.800 C 290.864 253.020,290.988 253.215,291.276 253.233 C 291.564 253.251,292.298 253.348,292.907 253.448 C 294.318 253.679,294.653 252.872,294.449 249.728 C 294.339 248.019,294.210 247.613,293.966 248.200 C 293.710 248.815,293.631 248.629,293.626 247.400 C 293.614 244.645,293.130 242.769,292.748 244.000 C 292.457 244.942,292.443 244.929,292.506 243.791 C 292.542 243.126,292.246 242.136,291.847 241.591 L 291.122 240.600 291.308 241.800 M258.000 241.561 C 257.670 241.747,254.545 242.866,251.056 244.049 C 246.776 245.501,245.054 246.241,245.763 246.327 C 246.341 246.397,246.710 246.622,246.583 246.827 C 246.456 247.032,246.533 247.200,246.753 247.200 C 246.973 247.200,247.264 247.020,247.400 246.800 C 247.536 246.580,248.042 246.382,248.524 246.360 C 249.328 246.324,249.318 246.297,248.400 246.042 C 247.554 245.806,247.508 245.722,248.100 245.494 C 248.485 245.346,249.047 245.320,249.348 245.436 C 249.650 245.551,250.145 245.404,250.448 245.108 C 250.752 244.812,251.851 244.535,252.891 244.494 C 254.181 244.442,255.039 244.161,255.591 243.609 C 256.036 243.164,256.657 242.800,256.971 242.800 C 257.286 242.800,257.838 242.505,258.198 242.145 C 259.043 241.300,262.184 242.143,261.812 243.114 C 261.665 243.497,261.785 243.615,262.170 243.467 C 262.488 243.345,262.827 243.460,262.924 243.722 C 263.059 244.089,263.222 244.085,263.623 243.707 C 264.258 243.108,264.308 243.150,261.647 242.072 C 259.287 241.116,258.891 241.061,258.000 241.561 M264.981 243.570 C 265.107 243.773,264.893 244.010,264.505 244.096 C 264.117 244.183,264.700 244.263,265.800 244.274 C 266.900 244.285,267.440 244.211,267.000 244.108 C 266.560 244.006,266.029 243.760,265.820 243.561 C 265.322 243.088,264.688 243.094,264.981 243.570 M243.200 246.800 C 242.800 247.058,242.767 247.190,243.100 247.194 C 243.375 247.197,243.600 247.380,243.600 247.600 C 243.600 247.820,243.139 248.000,242.576 248.000 C 241.996 248.000,241.660 247.827,241.800 247.600 C 242.153 247.028,241.447 247.106,240.132 247.784 C 239.510 248.105,238.502 248.470,237.893 248.594 C 236.980 248.779,236.875 248.915,237.293 249.365 C 237.572 249.666,237.890 249.778,238.000 249.616 C 238.521 248.844,240.175 248.400,242.525 248.400 C 244.328 248.400,245.252 248.220,245.600 247.800 C 246.016 247.299,245.958 247.200,245.249 247.200 C 244.782 247.200,244.400 247.020,244.400 246.800 C 244.400 246.299,243.976 246.299,243.200 246.800 M120.905 249.087 C 121.514 249.179,122.414 249.177,122.905 249.082 C 123.397 248.987,122.900 248.911,121.800 248.914 C 120.700 248.917,120.297 248.995,120.905 249.087 M123.800 249.533 C 123.727 249.607,122.293 249.720,120.615 249.785 C 118.937 249.850,117.448 250.019,117.307 250.160 C 116.932 250.535,116.881 252.000,117.243 252.000 C 117.779 252.000,118.121 251.122,117.690 250.855 C 117.463 250.715,126.710 250.624,138.239 250.653 C 151.125 250.686,159.200 250.561,159.200 250.330 C 159.200 250.122,159.383 250.066,159.607 250.204 C 159.830 250.342,159.937 250.578,159.845 250.728 C 159.752 250.878,160.012 251.630,160.421 252.400 C 160.831 253.170,161.174 253.575,161.183 253.300 C 161.212 252.442,162.000 252.754,162.000 253.624 C 162.000 254.087,161.820 254.336,161.588 254.193 C 161.170 253.934,162.518 256.556,164.693 260.227 C 165.353 261.342,166.216 262.934,166.610 263.764 C 167.150 264.903,167.407 265.132,167.652 264.694 C 168.145 263.812,167.352 261.598,166.051 260.226 C 165.411 259.552,164.765 258.592,164.615 258.094 C 164.465 257.596,164.177 257.290,163.976 257.415 C 163.774 257.540,163.717 257.361,163.849 257.018 C 163.980 256.675,163.798 255.952,163.444 255.411 C 163.090 254.870,162.800 254.163,162.800 253.839 C 162.800 253.515,162.260 252.658,161.600 251.936 C 160.940 251.213,160.400 250.511,160.400 250.375 C 160.400 249.761,158.333 249.208,157.569 249.617 C 157.137 249.848,156.562 249.900,156.292 249.732 C 155.827 249.445,124.083 249.250,123.800 249.533 M232.800 250.300 C 231.150 250.858,229.113 251.599,228.273 251.946 L 226.746 252.578 228.073 253.058 C 229.744 253.664,230.518 253.715,230.200 253.200 C 230.064 252.980,229.468 252.779,228.876 252.754 C 228.199 252.724,228.060 252.639,228.500 252.524 C 228.885 252.424,229.200 252.175,229.200 251.971 C 229.200 251.101,230.801 251.622,230.825 252.500 C 230.850 253.378,230.859 253.380,231.186 252.572 C 231.595 251.562,233.390 250.331,234.319 250.424 C 235.578 250.550,237.431 250.315,236.695 250.123 C 236.307 250.022,236.093 249.773,236.219 249.570 C 236.527 249.072,236.272 249.126,232.800 250.300 M164.800 252.400 C 165.270 253.060,165.744 253.600,165.854 253.600 C 165.964 253.600,165.670 253.060,165.200 252.400 C 164.730 251.740,164.256 251.200,164.146 251.200 C 164.036 251.200,164.330 251.740,164.800 252.400 M113.698 253.579 C 113.076 254.098,112.952 254.395,113.298 254.534 C 113.697 254.695,113.698 254.743,113.300 254.768 C 113.025 254.786,112.800 254.993,112.800 255.229 C 112.800 255.782,111.782 256.800,111.229 256.800 C 110.993 256.800,110.800 257.082,110.800 257.427 C 110.800 257.885,110.558 257.986,109.900 257.801 C 109.209 257.607,109.138 257.643,109.595 257.956 C 110.104 258.306,110.064 258.481,109.311 259.182 C 108.265 260.157,108.000 260.201,108.000 259.400 C 108.000 259.070,108.180 258.800,108.400 258.800 C 108.620 258.800,108.800 258.592,108.800 258.338 C 108.800 257.553,107.122 259.323,106.522 260.741 C 105.879 262.262,106.175 264.572,106.974 264.265 C 107.248 264.160,107.726 264.235,108.036 264.431 C 108.456 264.697,108.351 264.789,107.622 264.794 C 106.685 264.800,106.700 264.841,108.000 265.800 C 108.745 266.350,109.635 266.786,109.978 266.768 C 110.320 266.751,110.105 266.556,109.500 266.335 C 108.305 265.899,108.016 265.200,109.031 265.200 C 109.558 265.200,108.706 264.316,106.815 262.902 C 106.713 262.826,106.865 262.388,107.152 261.928 C 107.554 261.285,107.563 261.024,107.194 260.796 C 106.823 260.567,106.824 260.432,107.202 260.199 C 107.470 260.033,107.812 260.096,107.962 260.339 C 108.126 260.603,109.829 259.146,112.217 256.696 C 114.408 254.450,115.939 252.834,115.620 253.106 C 114.924 253.699,114.253 253.761,114.600 253.200 C 114.955 252.626,114.725 252.723,113.698 253.579 M166.800 253.957 C 166.800 254.227,166.607 254.328,166.370 254.182 C 166.133 254.035,166.169 254.282,166.451 254.732 C 166.731 255.181,167.089 255.468,167.248 255.371 C 167.406 255.273,167.654 255.736,167.800 256.400 C 167.946 257.064,168.195 257.527,168.354 257.428 C 168.513 257.330,168.661 257.884,168.683 258.658 C 168.706 259.479,169.062 260.428,169.537 260.933 C 169.985 261.410,170.531 262.250,170.751 262.800 C 171.093 263.660,171.155 263.688,171.191 263.000 C 171.226 262.326,171.329 262.379,171.847 263.335 C 172.693 264.897,173.020 264.386,172.195 262.791 C 171.830 262.085,171.187 261.417,170.766 261.307 C 169.979 261.101,169.691 260.400,170.393 260.400 C 170.609 260.400,170.459 259.815,170.059 259.100 C 169.659 258.385,168.833 256.900,168.224 255.800 C 166.934 253.471,166.800 253.298,166.800 253.957 M176.459 263.281 C 174.632 264.986,174.554 265.449,176.162 265.045 C 177.883 264.613,179.272 263.120,178.676 262.342 C 178.224 261.750,177.998 261.846,176.459 263.281 M110.400 265.800 C 110.674 266.130,111.281 266.403,111.749 266.406 C 112.442 266.411,112.489 266.483,112.000 266.794 C 111.439 267.150,164.272 267.608,165.500 267.257 C 167.910 266.569,162.751 266.400,139.300 266.398 C 116.397 266.395,112.437 266.310,111.454 265.798 C 110.010 265.044,109.773 265.045,110.400 265.800 M323.380 275.387 C 322.695 277.025,322.661 277.333,323.200 277.000 C 323.420 276.864,323.600 276.943,323.600 277.176 C 323.600 277.565,323.047 277.765,322.300 277.647 C 322.135 277.621,322.000 277.939,322.000 278.354 C 322.000 278.769,321.534 279.413,320.965 279.786 C 320.396 280.159,320.024 280.558,320.139 280.672 C 320.254 280.787,320.638 280.638,320.993 280.340 C 323.059 278.610,325.125 276.000,324.427 276.000 C 324.192 276.000,324.000 275.730,324.000 275.400 C 324.000 275.070,324.180 274.800,324.400 274.800 C 324.620 274.800,324.800 274.620,324.800 274.400 C 324.800 273.486,323.918 274.099,323.380 275.387 M68.737 277.396 C 68.395 277.738,68.808 279.200,69.247 279.200 C 69.441 279.200,69.600 279.481,69.600 279.825 C 69.600 280.780,71.602 284.800,72.078 284.800 C 72.320 284.800,72.265 284.517,71.949 284.135 C 71.501 283.593,71.497 283.437,71.924 283.293 C 72.325 283.159,72.281 282.931,71.738 282.331 C 71.347 281.899,70.568 280.555,70.007 279.345 C 69.447 278.135,68.875 277.258,68.737 277.396 M72.800 284.398 C 72.800 284.810,74.883 286.807,76.519 287.963 C 78.431 289.315,322.156 289.578,323.504 288.230 C 323.630 288.103,323.333 288.000,322.843 288.000 C 322.351 288.000,322.063 287.821,322.200 287.600 C 322.556 287.024,321.454 287.106,320.860 287.700 C 320.463 288.097,296.141 288.222,202.500 288.306 C 92.795 288.405,82.215 288.327,78.800 287.402 C 78.026 287.192,77.935 287.227,78.400 287.559 C 78.895 287.913,78.835 287.989,78.057 287.994 C 77.407 287.998,77.182 287.824,77.332 287.434 C 77.472 287.069,77.066 286.638,76.192 286.223 C 75.445 285.868,74.726 285.404,74.595 285.191 C 74.185 284.528,72.800 283.916,72.800 284.398 " stroke="none" fill="#637cdc" fill-rule="evenodd"></path></g></svg>