<?xml version="1.0" standalone="no"?>
<!DOCTYPE svg PUBLIC "-//W3C//DTD SVG 20010904//EN"
 "http://www.w3.org/TR/2001/REC-SVG-20010904/DTD/svg10.dtd">
<svg version="1.0" xmlns="http://www.w3.org/2000/svg"
 width="812.000000pt" height="282.000000pt" viewBox="0 0 812.000000 282.000000"
 preserveAspectRatio="xMidYMid meet">

<g transform="translate(0.000000,282.000000) scale(0.100000,-0.100000)"
fill="#000000" stroke="none">
<path d="M0 1410 l0 -1410 4060 0 4060 0 0 1410 0 1410 -4060 0 -4060 0 0
-1410z m865 670 c146 -74 276 -65 433 31 22 13 26 12 63 -31 21 -25 39 -55 39
-67 0 -35 -94 -129 -163 -163 -126 -61 -249 -61 -374 0 -65 32 -163 129 -163
161 0 17 66 109 78 109 4 0 43 -18 87 -40z m5153 -352 l3 -108 127 0 c86 0
132 -4 140 -12 16 -16 16 -200 0 -216 -8 -8 -54 -12 -140 -12 l-128 0 0 -155
c0 -168 7 -201 53 -244 31 -28 103 -39 159 -23 62 17 69 4 66 -118 -3 -105 -3
-105 -32 -119 -42 -20 -183 -26 -247 -11 -124 29 -219 102 -265 203 l-29 62
-3 419 c-2 231 0 426 2 433 4 11 35 13 148 11 l143 -3 3 -107z m-3979 -88
c120 -20 228 -96 280 -199 45 -87 51 -139 51 -428 0 -259 -1 -273 -19 -283
-25 -13 -237 -13 -262 0 -18 10 -19 24 -19 243 0 129 -5 249 -10 269 -22 78
-90 130 -170 130 -88 0 -152 -57 -170 -152 -5 -29 -10 -151 -10 -272 l0 -219
-147 3 -148 3 -3 429 c-1 308 1 433 9 442 9 10 42 14 130 14 119 0 120 0 129
-26 6 -14 10 -36 10 -50 0 -32 5 -31 51 11 51 46 107 73 171 84 29 5 55 9 58
10 3 0 34 -4 69 -9z m2056 -22 c184 -60 304 -217 335 -438 13 -96 39 -90 -360
-90 -193 0 -350 -3 -350 -6 0 -22 50 -88 83 -111 34 -24 53 -29 119 -32 81 -3
122 7 167 41 34 26 47 23 155 -27 71 -33 96 -50 96 -64 0 -26 -78 -95 -149
-131 -299 -150 -678 -3 -757 294 -30 114 -8 258 55 358 122 192 380 280 606
206z m2834 17 c61 -8 144 -50 179 -89 l30 -34 8 52 9 51 110 3 c61 2 120 0
133 -3 l22 -5 0 -433 c0 -323 -3 -436 -12 -445 -15 -15 -211 -17 -237 -2 -12
6 -21 26 -25 53 l-7 43 -39 -37 c-60 -58 -136 -83 -250 -83 -81 0 -105 4 -160
27 -173 72 -285 225 -297 408 -7 94 8 162 55 252 64 124 206 227 337 246 33 4
69 7 80 5 11 -1 40 -5 64 -9z m-1617 -27 c71 -33 137 -93 172 -157 47 -86 56
-159 56 -448 0 -249 -1 -263 -19 -273 -21 -11 -238 -14 -265 -4 -14 5 -16 36
-16 238 0 246 -6 290 -46 344 -63 82 -191 87 -260 10 -47 -51 -49 -61 -52
-323 -2 -154 -8 -255 -14 -262 -13 -16 -240 -18 -269 -3 -18 10 -19 26 -19
439 0 354 2 431 14 440 9 8 54 11 132 9 l119 -3 10 -53 10 -53 30 31 c72 76
141 101 265 97 78 -2 105 -7 152 -29z m-4114 -427 c1 -312 -1 -438 -9 -447
-14 -17 -239 -20 -270 -4 -18 10 -19 26 -19 438 0 325 3 431 12 440 9 9 51 12
148 10 l135 -3 3 -434z m1525 419 c8 -12 54 -108 103 -215 48 -107 90 -192 93
-189 3 3 49 98 102 212 l95 207 146 3 c118 2 147 0 157 -12 10 -12 -28 -93
-210 -443 -122 -235 -227 -431 -233 -435 -18 -12 -101 -9 -118 5 -15 12 -448
837 -448 855 0 26 30 32 161 32 128 0 139 -2 152 -20z"/>
<path d="M3830 1394 c-19 -8 -45 -25 -58 -37 -22 -20 -52 -68 -52 -82 0 -3 92
-5 205 -5 159 0 205 3 205 13 0 27 -51 86 -93 106 -52 25 -154 28 -207 5z"/>
<path d="M6835 1369 c-146 -55 -186 -235 -76 -343 101 -98 275 -68 335 58 40
85 9 201 -70 258 -47 34 -136 46 -189 27z"/>
</g>
</svg>
