<?xml version="1.0" standalone="no"?>
<!DOCTYPE svg PUBLIC "-//W3C//DTD SVG 20010904//EN"
 "http://www.w3.org/TR/2001/REC-SVG-20010904/DTD/svg10.dtd">
<svg version="1.0" xmlns="http://www.w3.org/2000/svg"
 width="501.000000pt" height="501.000000pt" viewBox="0 0 501.000000 501.000000"
 preserveAspectRatio="xMidYMid meet">

<g transform="translate(0.000000,501.000000) scale(0.100000,-0.100000)"
fill="#000000" stroke="none">
<path d="M2252 4539 c-24 -12 -80 -56 -124 -98 -48 -45 -83 -71 -85 -63 -3 6
-20 12 -38 12 -25 0 -38 -6 -46 -22 -6 -12 -64 -74 -128 -137 -65 -64 -127
-129 -140 -146 -17 -23 -19 -24 -10 -6 6 14 31 46 55 71 61 65 55 75 -8 15
-29 -28 -15 -11 32 38 46 48 80 87 74 87 -16 0 -83 -46 -121 -83 -20 -19 -33
-25 -33 -17 0 21 -14 4 -56 -70 -111 -195 -125 -233 -149 -414 -18 -135 -19
-181 -2 -198 16 -16 19 -98 3 -98 -15 0 -124 119 -132 144 -3 11 -18 31 -32
44 -23 20 -28 21 -38 8 -6 -9 -14 -13 -17 -10 -3 3 1 -16 9 -43 9 -26 17 -57
20 -68 2 -11 22 -46 44 -78 32 -47 38 -62 30 -80 -13 -30 -40 -153 -40 -181 0
-12 -15 -37 -35 -56 -19 -19 -35 -42 -35 -52 0 -10 -16 -41 -36 -69 -32 -44
-35 -53 -25 -72 10 -18 9 -30 -4 -59 -10 -24 -15 -69 -15 -127 0 -75 4 -97 24
-138 27 -52 28 -51 49 32 6 28 16 48 20 45 5 -3 15 9 22 25 12 27 14 17 14
-100 0 -129 11 -187 45 -240 7 -11 21 -42 31 -70 10 -27 25 -59 32 -71 7 -11
14 -32 15 -47 3 -37 28 -14 28 27 l1 31 12 -27 c7 -14 32 -41 56 -60 l45 -33
-1 -81 c-1 -57 -6 -89 -17 -106 -15 -23 -15 -26 4 -43 16 -14 19 -26 14 -49
-3 -17 -10 -35 -15 -40 -16 -18 -9 -36 14 -36 17 0 25 -9 33 -35 9 -29 9 -35
-4 -35 -12 0 -13 -9 -8 -46 3 -26 6 -55 6 -65 0 -11 18 -29 48 -45 26 -15 49
-29 51 -31 2 -1 -1 -15 -8 -29 -18 -41 -3 -89 60 -185 33 -49 59 -97 59 -105
0 -9 14 -35 31 -59 26 -36 30 -50 25 -76 -10 -49 10 -105 47 -131 25 -18 42
-22 84 -20 62 4 70 -12 23 -46 -39 -29 -39 -47 1 -27 17 9 34 13 37 10 4 -4 7
-28 7 -53 l0 -47 40 -1 c56 -1 55 -1 45 -35 -7 -24 -6 -31 8 -36 9 -3 33 -13
52 -22 22 -10 60 -16 100 -15 36 0 67 -3 70 -6 18 -24 87 -56 105 -50 28 10
40 1 19 -14 -19 -14 -11 -36 12 -36 13 0 19 -13 15 -34 -1 -5 21 -6 51 -2 29
4 74 10 101 12 26 2 61 10 77 19 16 8 40 15 55 15 21 0 25 -5 25 -30 0 -37 12
-38 34 -5 9 14 23 25 31 25 8 0 15 6 15 14 0 8 12 24 27 37 14 13 41 38 60 56
32 30 33 30 33 8 0 -18 4 -21 25 -17 19 3 25 11 25 31 1 24 2 24 14 9 15 -20
26 -14 26 14 0 10 6 18 13 18 7 0 23 10 36 21 20 19 21 23 8 36 -13 13 -12 21
4 66 11 29 19 53 19 55 0 2 3 1 8 -1 4 -3 7 8 8 23 1 16 15 51 33 78 17 27 31
56 31 66 0 10 14 23 34 31 41 17 46 29 46 111 0 60 2 64 25 70 24 6 25 9 25
84 0 95 16 136 81 212 27 31 49 61 49 66 0 5 7 12 15 16 18 6 20 57 3 74 -8 8
-9 24 0 64 6 29 14 73 17 98 5 31 15 52 32 66 24 21 24 22 14 100 -10 70 -10
80 5 91 19 14 40 95 49 191 10 110 14 121 36 115 11 -3 19 0 19 7 0 7 8 19 18
26 14 10 18 31 20 113 3 70 8 104 18 112 33 27 1 248 -59 411 -13 37 -20 65
-16 62 12 -7 11 3 -2 27 -9 18 -8 19 10 7 11 -6 17 -16 15 -20 -6 -9 65 -162
72 -156 9 9 -38 126 -80 198 -23 41 -46 87 -49 101 -8 32 -127 154 -159 162
-19 5 -23 13 -23 49 -1 54 -28 98 -62 98 -14 0 -37 9 -51 21 -25 19 -26 25
-25 107 l1 87 -12 -73 c-7 -39 -15 -74 -17 -77 -5 -4 -9 48 -8 125 0 55 -20
140 -32 140 -5 0 -9 -14 -9 -31 0 -27 -2 -30 -15 -19 -8 7 -15 9 -15 4 0 -4
-17 8 -37 28 -91 87 -273 185 -367 199 -52 7 -65 14 -104 52 -44 44 -44 45
-27 71 10 14 23 26 31 26 21 0 26 17 12 40 -11 18 -10 23 3 30 61 35 144 98
141 108 -1 7 9 18 23 24 14 6 25 15 25 19 0 12 -30 19 -55 13 -19 -5 -24 -1
-27 17 -4 30 -54 44 -106 29 -20 -5 -72 -38 -115 -73 -43 -35 -93 -69 -112
-74 -38 -12 -40 -9 -35 46 1 18 -2 22 -14 18 -8 -3 -18 -2 -21 3 -12 20 -36 9
-47 -20 -7 -23 -15 -29 -28 -25 -22 7 -94 -70 -152 -163 -22 -34 -53 -69 -69
-77 -16 -9 -55 -36 -86 -62 -32 -25 -52 -40 -45 -32 6 7 12 19 12 26 0 7 -19
-8 -41 -32 -46 -49 -64 -54 -31 -7 11 15 24 41 28 56 3 15 15 33 25 39 11 7
19 16 19 21 0 5 33 47 72 95 40 47 72 91 70 97 -1 7 19 29 45 50 56 44 146
135 139 141 -2 3 -15 -1 -27 -8 -17 -9 -24 -9 -27 0 -5 16 -21 14 -70 -10z
m168 -203 c0 -2 -8 -10 -17 -17 -16 -13 -17 -12 -4 4 13 16 21 21 21 13z m-89
-123 c-25 -49 -71 -99 -71 -76 0 15 86 133 97 133 2 0 -10 -26 -26 -57z m-222
-238 c-13 -26 -27 -49 -31 -51 -5 -3 4 19 19 50 15 30 29 54 31 51 2 -2 -6
-25 -19 -50z m960 1 c8 -10 35 -28 61 -40 26 -11 68 -40 93 -63 42 -39 46 -46
43 -83 -3 -42 -21 -52 -21 -12 0 13 -8 28 -18 33 -10 6 -22 22 -28 35 -6 19
-14 24 -28 19 -13 -4 -37 10 -80 46 -34 28 -59 54 -57 57 3 3 1 11 -4 18 -8 9
-6 12 7 10 10 0 24 -9 32 -20z m-209 -48 c25 -11 53 -27 63 -36 9 -8 17 -12
17 -9 0 8 32 -10 98 -52 28 -19 52 -40 52 -47 0 -16 -23 -24 -52 -17 -26 7
-141 80 -146 94 -2 5 -8 9 -14 9 -9 0 -75 48 -113 82 -15 14 43 -1 95 -24z
m-327 -121 c-3 -5 -14 -1 -24 9 -19 17 -25 45 -12 58 9 8 43 -56 36 -67z m157
-1 c14 -12 45 -43 70 -70 l45 -49 -43 22 c-46 24 -172 141 -172 161 0 11 36
-12 100 -64z m-655 4 c-8 -30 -15 -66 -16 -80 -1 -21 -3 -19 -10 10 -7 28 -4
45 13 82 12 27 23 47 24 45 2 -2 -3 -27 -11 -57z m864 -319 c8 -5 9 -11 3 -15
-6 -3 -13 -2 -17 4 -4 6 -10 8 -14 6 -4 -3 -13 -1 -21 5 -12 7 -9 9 10 9 14 0
31 -4 39 -9z m401 -411 c0 -5 12 -10 28 -10 46 -1 77 -38 116 -138 37 -95 44
-132 71 -372 18 -165 18 -155 0 -140 -8 7 -15 23 -15 37 0 121 -228 142 -596
52 -123 -29 -257 -86 -267 -112 -4 -10 -28 -16 -79 -19 -59 -5 -80 -2 -110 13
-124 63 -278 98 -441 100 -135 2 -31 18 168 25 197 8 232 15 168 34 -44 13
-57 29 -25 31 27 2 -28 17 -66 18 -18 1 -31 5 -28 10 9 14 -32 21 -131 21
-105 0 -189 -16 -318 -59 -49 -16 -91 -28 -93 -27 -10 11 -40 174 -45 248 -5
72 -3 89 10 100 9 7 31 36 49 63 17 28 43 61 57 74 22 20 30 22 59 13 18 -6
51 -14 73 -17 22 -4 34 -10 27 -12 -22 -8 7 -33 40 -33 16 0 39 -7 51 -15 14
-9 71 -19 147 -25 69 -6 150 -16 180 -23 l55 -11 -95 -12 -95 -11 80 -2 c156
-2 478 41 590 80 17 6 89 23 160 38 82 18 152 39 190 59 63 33 85 38 85 22z
m367 -177 c-3 -10 -5 -4 -5 12 0 17 2 24 5 18 2 -7 2 -21 0 -30z m-312 -454
c54 -26 65 -60 56 -180 -9 -129 -37 -194 -116 -273 -70 -71 -131 -100 -221
-104 -128 -7 -216 53 -288 195 -47 94 -59 145 -51 213 6 53 9 59 43 78 45 24
62 28 287 63 190 29 243 31 290 8z m-1210 -43 c101 -15 160 -40 198 -86 58
-69 57 -166 -5 -281 -37 -71 -98 -128 -177 -166 -49 -24 -68 -28 -146 -28
-105 0 -144 16 -211 87 -73 76 -89 122 -110 319 -6 52 -4 58 25 92 29 32 74
54 146 70 43 10 195 6 280 -7z m418 -150 c15 -3 27 -3 27 2 0 5 13 7 29 4 27
-4 29 -7 35 -68 4 -35 9 -71 12 -79 4 -8 2 -15 -4 -15 -5 0 -17 26 -26 58 -15
55 -16 55 -12 13 7 -74 61 -168 145 -251 142 -141 312 -186 448 -118 60 30
175 134 195 177 15 33 16 34 20 11 2 -14 -6 -52 -18 -85 -12 -33 -30 -92 -39
-131 l-18 -70 -43 -10 c-24 -6 -41 -6 -38 -2 12 19 -10 6 -28 -17 -11 -14 -24
-25 -29 -25 -14 0 -84 -70 -98 -98 l-12 -23 -30 26 c-52 43 -171 108 -205 111
-43 4 -96 -32 -108 -73 -12 -41 -47 -60 -143 -78 -99 -19 -154 -10 -254 40
-51 26 -70 32 -66 21 5 -14 -3 -16 -58 -16 -44 0 -95 -10 -157 -29 -56 -18
-117 -30 -153 -30 l-60 -1 -28 49 c-15 28 -59 98 -98 157 -52 79 -73 120 -80
160 -13 72 -4 84 33 40 16 -20 44 -44 61 -52 18 -9 43 -26 57 -39 36 -33 124
-58 200 -58 121 1 316 77 370 145 58 71 73 121 77 248 5 145 5 144 40 127 16
-8 40 -17 56 -21z m-333 -811 c-14 -8 -32 -14 -40 -14 -8 0 -1 6 15 14 40 18
57 18 25 0z m891 -149 c6 -21 3 -42 -10 -70 -23 -52 -45 -71 -83 -68 -24 2
-38 -6 -70 -40 -56 -60 -122 -150 -137 -187 -8 -17 -18 -31 -23 -31 -15 0 -64
28 -77 44 -8 9 -26 16 -42 16 -15 0 -31 5 -34 10 -18 29 -135 0 -214 -54 -31
-21 -65 -36 -82 -36 -41 0 -100 57 -138 134 -17 35 -38 67 -46 70 -23 8 -18
57 8 90 23 29 25 29 135 30 l111 1 35 34 c21 21 39 30 47 25 17 -10 83 -23
155 -30 48 -4 74 0 120 17 72 26 145 41 199 40 22 0 56 8 75 19 45 25 62 22
71 -14z"/>
<path d="M2888 2840 c-90 -14 -178 -39 -229 -66 -50 -25 -76 -50 -43 -41 51
15 83 17 89 8 3 -6 -1 -11 -9 -11 -8 0 -18 -5 -22 -12 -5 -8 -2 -9 12 -4 10 4
84 9 163 12 79 3 147 6 150 8 3 2 49 0 101 -5 93 -8 181 -33 270 -79 57 -29
66 -25 34 18 l-29 37 29 -18 c44 -29 45 -9 1 30 -48 42 -130 85 -205 107 -66
20 -233 28 -312 16z"/>
<path d="M3814 2958 c2 -9 8 -33 12 -52 3 -20 11 -39 17 -43 6 -4 8 2 4 18 -4
13 -7 31 -7 40 0 8 -7 24 -16 35 -12 15 -15 16 -10 2z"/>
<path d="M2921 504 c0 -11 3 -14 6 -6 3 7 2 16 -1 19 -3 4 -6 -2 -5 -13z"/>
</g>
</svg>
